<svg width="62" height="50" viewBox="0 0 62 50" fill="none" xmlns="http://www.w3.org/2000/svg">
<path d="M14.5232 22.4845C14.5232 22.3732 14.5498 22.263 14.6015 22.1601C14.6533 22.0572 14.7292 21.9638 14.8248 21.8851C14.9205 21.8063 15.0341 21.7439 15.1592 21.7013C15.2842 21.6588 15.4182 21.6369 15.5536 21.6369H19.8671C20.1403 21.6369 20.4024 21.7262 20.5956 21.8852C20.7889 22.0441 20.8974 22.2597 20.8974 22.4845C20.8974 22.7093 20.7889 22.9249 20.5956 23.0838C20.4024 23.2428 20.1403 23.3321 19.8671 23.3321H15.5536C15.4182 23.3322 15.2842 23.3103 15.1592 23.2677C15.0342 23.2251 14.9205 23.1627 14.8248 23.084C14.7292 23.0053 14.6533 22.9118 14.6015 22.8089C14.5498 22.7061 14.5232 22.5958 14.5232 22.4845ZM23.1924 17.9901C23.3866 18.145 23.6471 18.2309 23.9177 18.2292C24.1882 18.2275 24.4471 18.1384 24.6384 17.981C24.8297 17.8236 24.9381 17.6107 24.9401 17.3881C24.9422 17.1656 24.8377 16.9513 24.6493 16.7915L22.6511 15.1477L24.6494 13.5039C25.6079 12.7386 24.1239 11.5157 23.1924 12.3054L20.4658 14.5484C20.3701 14.6271 20.2942 14.7205 20.2424 14.8233C20.1906 14.9261 20.1639 15.0363 20.1639 15.1476C20.1639 15.2589 20.1906 15.3691 20.2424 15.4719C20.2942 15.5747 20.3701 15.6682 20.4658 15.7468L23.1924 17.9901ZM15.5536 26.479H24.7762C25.0459 26.4746 25.3027 26.3833 25.4916 26.2249C25.6804 26.0664 25.7862 25.8533 25.7862 25.6314C25.7862 25.4095 25.6804 25.1965 25.4916 25.038C25.3027 24.8796 25.0459 24.7883 24.7762 24.7839H15.5536C15.2843 24.7888 15.0281 24.8803 14.8398 25.0387C14.6515 25.1971 14.5461 25.4099 14.5461 25.6314C14.5461 25.853 14.6515 26.0657 14.8398 26.2241C15.0281 26.3825 15.2843 26.4741 15.5536 26.479ZM20.2354 27.9292H15.5536C15.2837 27.9334 15.0266 28.0245 14.8376 28.183C14.6485 28.3415 14.5426 28.5547 14.5426 28.7767C14.5426 28.9988 14.6485 29.212 14.8376 29.3704C15.0266 29.5289 15.2837 29.6201 15.5536 29.6243H20.2353C20.5057 29.6207 20.7635 29.5298 20.9532 29.3713C21.1429 29.2127 21.2492 28.9992 21.2492 28.7767C21.2492 28.5542 21.1429 28.3407 20.9532 28.1821C20.7636 28.0236 20.5058 27.9328 20.2354 27.9292ZM24.7762 21.6369C24.5064 21.6412 24.2493 21.7323 24.0602 21.8908C23.8712 22.0493 23.7653 22.2625 23.7653 22.4845C23.7653 22.7066 23.8712 22.9197 24.0602 23.0782C24.2493 23.2367 24.5064 23.3279 24.7762 23.3321H32.7683C33.0415 23.3321 33.3036 23.2428 33.4968 23.0838C33.69 22.9249 33.7986 22.7093 33.7986 22.4845C33.7986 22.2597 33.69 22.0441 33.4968 21.8852C33.3036 21.7262 33.0415 21.6369 32.7683 21.6369H24.7762ZM26.3791 19.2647C26.6366 19.34 26.9199 19.328 27.1667 19.2315C27.4135 19.1349 27.6036 18.9617 27.6952 18.7499L30.5618 12.1117C30.6524 11.9 30.6373 11.6674 30.5196 11.4649C30.402 11.2623 30.1914 11.1065 29.9343 11.0315C29.6771 10.9565 29.3942 10.9685 29.1478 11.0649C28.9014 11.1613 28.7115 11.3341 28.6199 11.5456L25.7532 18.1837C25.7079 18.2885 25.6882 18.3996 25.6952 18.5106C25.7021 18.6217 25.7356 18.7305 25.7937 18.8309C25.8519 18.9313 25.9335 19.0213 26.0339 19.0957C26.1344 19.1701 26.2517 19.2276 26.3791 19.2647ZM31.6646 17.9901C31.7602 18.0688 31.8738 18.1312 31.9988 18.1738C32.1238 18.2164 32.2577 18.2384 32.393 18.2384C32.5283 18.2384 32.6623 18.2164 32.7873 18.1738C32.9123 18.1312 33.0258 18.0688 33.1215 17.9901L35.8492 15.747C36.041 15.5874 36.1485 15.3721 36.1485 15.1478C36.1485 14.9234 36.041 14.7081 35.8492 14.5485L33.1215 12.3053C32.1911 11.5176 30.7047 12.737 31.6646 13.5039L33.6638 15.1476L31.6646 16.7915C31.5689 16.8702 31.493 16.9636 31.4412 17.0664C31.3894 17.1692 31.3627 17.2794 31.3627 17.3907C31.3627 17.502 31.3894 17.6122 31.4412 17.7151C31.493 17.8179 31.5689 17.9114 31.6646 17.9901ZM40.4374 2.65985C40.1703 2.66746 39.9173 2.76009 39.7316 2.91821C39.5459 3.07633 39.4422 3.28758 39.4422 3.50742C39.4422 3.72726 39.5459 3.93851 39.7316 4.09663C39.9173 4.25475 40.1703 4.34738 40.4374 4.35499C40.7045 4.34738 40.9575 4.25475 41.1432 4.09663C41.3289 3.93851 41.4327 3.72726 41.4327 3.50742C41.4327 3.28758 41.3289 3.07633 41.1432 2.91821C40.9575 2.76009 40.7045 2.66746 40.4374 2.65985ZM37.3927 2.65985C37.1256 2.66746 36.8726 2.76009 36.6869 2.91821C36.5012 3.07633 36.3974 3.28758 36.3974 3.50742C36.3974 3.72726 36.5012 3.93851 36.6869 4.09663C36.8726 4.25475 37.1256 4.34738 37.3927 4.35499C37.6598 4.34737 37.9128 4.25473 38.0985 4.09661C38.2842 3.93849 38.3879 3.72723 38.3879 3.50739C38.3879 3.28755 38.2841 3.07631 38.0984 2.91819C37.9128 2.76008 37.6598 2.66745 37.3927 2.65985ZM55.1077 38.3996C55.0928 39.4854 54.5579 40.5225 53.6193 41.286C52.6806 42.0495 51.4138 42.4777 50.0938 42.4776C48.7738 42.4776 47.507 42.0494 46.5683 41.2859C45.6297 40.5224 45.0949 39.4852 45.0801 38.3994C45.0957 37.314 45.6308 36.2774 46.5694 35.5144C47.508 34.7514 48.7744 34.3235 50.0939 34.3235C51.4135 34.3235 52.6798 34.7515 53.6184 35.5145C54.557 36.2775 55.0921 37.3141 55.1077 38.3996ZM53.047 38.3996C53.036 37.7612 52.7199 37.1522 52.1673 36.704C51.6147 36.2558 50.8698 36.0046 50.0938 36.0046C49.3178 36.0046 48.5729 36.2559 48.0203 36.7041C47.4677 37.1522 47.1517 37.7613 47.1407 38.3997C47.1523 39.0377 47.4686 39.6463 48.0211 40.0941C48.5737 40.5419 49.3182 40.7929 50.0939 40.7929C50.8696 40.7928 51.6141 40.5418 52.1666 40.094C52.7192 39.6462 53.0354 39.0376 53.047 38.3996ZM31.5378 27.9291H23.5457C23.276 27.9335 23.0192 28.0248 22.8303 28.1832C22.6415 28.3417 22.5358 28.5547 22.5358 28.7766C22.5358 28.9985 22.6415 29.2116 22.8303 29.3701C23.0192 29.5285 23.276 29.6198 23.5457 29.6242H31.5377C31.8074 29.6198 32.0642 29.5285 32.2531 29.3701C32.4419 29.2116 32.5477 28.9986 32.5477 28.7767C32.5477 28.5548 32.4419 28.3417 32.2531 28.1832C32.0643 28.0248 31.8075 27.9335 31.5378 27.9291ZM61.8521 41.6789L59.4222 45.1354C59.3545 45.2321 59.2643 45.3168 59.1567 45.3847C59.0492 45.4526 58.9263 45.5023 58.7953 45.5311C58.1758 45.7488 56.4681 44.6313 55.9377 44.4534C55.2126 44.9235 54.4066 45.3023 53.5461 45.5774C53.4272 46.6817 54.0464 48.3833 52.5157 48.4264H47.676C46.1454 48.3836 46.7644 46.6819 46.6456 45.5774C45.781 45.3055 44.9721 44.9265 44.2469 44.4534C43.0946 44.8859 41.5558 46.2123 40.7474 45.1338L38.3376 41.6773C37.8209 40.8907 38.7624 40.4586 39.4859 40.1526H33.5652V43.8608H35.0665C35.8105 43.8612 36.5239 44.1044 37.0502 44.537C37.5765 44.9696 37.8727 45.5563 37.8737 46.1684V48.7773C37.8738 48.8886 37.8472 48.9989 37.7954 49.1017C37.7437 49.2046 37.6678 49.2981 37.5721 49.3768C37.4764 49.4555 37.3628 49.5179 37.2378 49.5605C37.1127 49.6031 36.9787 49.625 36.8434 49.6249H19.4716C19.3363 49.625 19.2023 49.6031 19.0773 49.5605C18.9522 49.5179 18.8386 49.4555 18.7429 49.3768C18.6472 49.2981 18.5713 49.2046 18.5196 49.1017C18.4678 48.9989 18.4412 48.8886 18.4413 48.7773V46.1684C18.4421 45.5564 18.7381 44.9697 19.2642 44.5371C19.7903 44.1045 20.5036 43.8612 21.2476 43.8608H22.7487V40.1526H3.24091C2.37918 40.1497 1.55406 39.8657 0.946503 39.3629C0.338951 38.8602 -0.00143258 38.1798 4.5322e-06 37.4709V10.2725C-0.00143258 9.56357 0.338951 8.88316 0.946503 8.38043C1.55406 7.87771 2.37918 7.59372 3.24091 7.59074H10.5961C10.5961 6.52429 10.593 3.69931 10.5941 2.59636C10.6014 1.984 10.9004 1.39843 11.4268 0.965402C11.9531 0.532374 12.665 0.286432 13.4094 0.280396H42.9057C43.6504 0.285395 44.3629 0.531027 44.8894 0.964294C45.4159 1.39756 45.7142 1.98373 45.72 2.59633C45.6759 3.70834 45.7512 6.51211 45.719 7.59069H53.0732C53.9349 7.59367 54.76 7.87766 55.3676 8.38039C55.9751 8.88311 56.3155 9.56352 56.3141 10.2724V32.1578C56.8434 31.9844 58.1742 31.0493 58.7953 31.2598C59.0601 31.3179 59.2859 31.4603 59.4232 31.6554L61.8531 35.1135C62.5742 36.223 60.4611 36.6431 59.403 37.2622C59.5596 38.0132 59.5603 38.7806 59.4051 39.5318C60.4629 40.1501 62.5747 40.57 61.8521 41.6789ZM45.7189 9.28583V11.0803H51.0416C51.1769 11.0802 51.3109 11.1021 51.436 11.1447C51.561 11.1873 51.6746 11.2497 51.7703 11.3284C51.866 11.4071 51.9419 11.5006 51.9936 11.6035C52.0454 11.7063 52.072 11.8166 52.0719 11.9279V28.381C52.7663 28.2996 53.5561 28.5717 53.5459 29.2286V31.2167C53.7864 31.2945 54.0229 31.3805 54.2533 31.4733V10.2725C54.2556 10.0129 54.1326 9.76327 53.9113 9.57829C53.69 9.39331 53.3885 9.28814 53.073 9.28588L45.7189 9.28583ZM42.156 31.3442L43.6582 32.0576V6.73485H12.6568V34.9513H38.4518L40.7474 31.6571C40.8847 31.4628 41.1097 31.321 41.3735 31.2624C41.6372 31.2038 41.9184 31.2332 42.156 31.3442ZM10.5961 34.9513V12.7788H6.30474V34.9513H10.5961ZM12.6568 5.03971H43.6582V2.59218C43.6503 2.42902 43.567 2.27449 43.4252 2.16019C43.2835 2.04589 43.094 1.98043 42.8955 1.9772H13.4184C13.2199 1.97768 13.0293 2.04172 12.8872 2.15576C12.745 2.26979 12.6624 2.42486 12.6568 2.58814L12.6568 5.03971ZM46.6456 31.2134C46.7638 30.1222 46.1466 28.4243 47.676 28.381H50.0113V12.7755H45.7189V31.5577C46.02 31.4293 46.3294 31.3144 46.6456 31.2134ZM3.24091 38.4575C13.4662 38.4583 30.6121 38.4537 40.6709 38.4575C40.6695 38.0565 40.7089 37.6562 40.7886 37.2606L39.5015 36.6465C34.7544 36.6518 9.3939 36.6426 5.27441 36.6465C5.13909 36.6465 5.00507 36.6247 4.88003 36.5821C4.75499 36.5395 4.64138 36.4771 4.54569 36.3984C4.45 36.3196 4.37411 36.2262 4.32236 36.1233C4.27061 36.0205 4.24401 35.9102 4.24408 35.7989V11.9312C4.244 11.8199 4.2706 11.7096 4.32235 11.6068C4.3741 11.5039 4.44999 11.4104 4.54568 11.3317C4.64137 11.253 4.75499 11.1906 4.88003 11.148C5.00507 11.1054 5.13909 11.0835 5.27441 11.0836H10.5961V9.28583H3.24091C2.92543 9.28809 2.62394 9.39326 2.40265 9.57824C2.18136 9.76322 2.05836 10.0129 2.06067 10.2724V37.4709C2.05835 37.7304 2.18134 37.9801 2.40264 38.1651C2.62393 38.35 2.92542 38.4552 3.24091 38.4575ZM35.0665 45.5559C33.4243 45.556 25.5851 45.5559 23.7791 45.5559H21.2476C21.05 45.5559 20.8605 45.6204 20.7207 45.7353C20.5809 45.8501 20.5023 46.0059 20.502 46.1684V47.9298H35.8131C35.7134 46.9708 36.2072 45.5709 35.0665 45.5559ZM31.5046 40.1526H24.8093V43.8608H31.5044L31.5046 40.1526ZM59.5539 41.563L57.7347 40.6939C56.7318 40.2133 57.5892 39.0748 57.46 38.4045C57.5932 37.7482 56.7293 36.578 57.7347 36.0985L59.5539 35.2294L58.1553 33.2379L56.3392 34.107C55.7352 34.4391 55.0698 33.9928 54.6941 33.6931C53.9552 33.2134 53.1136 32.8518 52.2128 32.6271C52.0022 32.574 51.8178 32.4667 51.6869 32.321C51.5559 32.1753 51.4853 31.9988 51.4854 31.8176V30.0761H48.7063V31.8176C48.7066 31.9996 48.6356 32.1767 48.5038 32.3229C48.372 32.469 48.1865 32.5763 47.9748 32.6288C46.9011 32.8893 45.9152 33.3505 45.0939 33.9763C44.2623 34.6941 42.9203 33.5641 42.0211 33.238L40.6371 35.2247L42.4587 36.1002C43.463 36.5827 42.5971 37.7428 42.7314 38.4045C42.618 39.1662 43.4399 40.1731 42.4567 40.694L40.6345 41.5647L42.021 43.5529L43.8542 42.6821C44.0477 42.5914 44.2716 42.5544 44.4926 42.5764C44.7137 42.5985 44.9203 42.6785 45.0818 42.8046C45.9013 43.4393 46.8925 43.9045 47.9736 44.162C49.1081 44.4073 48.6014 45.8956 48.7061 46.7313H51.4852C51.5898 45.8948 51.0833 44.4076 52.2176 44.1621C53.2999 43.8988 54.2928 43.4318 55.1175 42.798C55.2793 42.6738 55.4854 42.5957 55.7053 42.5752C55.9252 42.5546 56.1474 42.5927 56.339 42.6838L58.1551 43.5529L59.5539 41.563ZM40.7605 27.929H36.448C36.1781 27.9332 35.921 28.0243 35.732 28.1828C35.5429 28.3413 35.437 28.5545 35.437 28.7765C35.437 28.9986 35.5429 29.2118 35.732 29.3703C35.921 29.5288 36.1781 29.6199 36.448 29.6241H40.7604C41.0297 29.6193 41.286 29.5278 41.4745 29.3694C41.6629 29.211 41.7684 28.9982 41.7684 28.7766C41.7684 28.555 41.6629 28.3422 41.4745 28.1838C41.2861 28.0254 41.0298 27.9338 40.7605 27.929ZM40.7605 24.7837H27.8018C27.5321 24.7881 27.2753 24.8794 27.0865 25.0378C26.8977 25.1963 26.7919 25.4094 26.7919 25.6313C26.7919 25.8532 26.8977 26.0662 27.0865 26.2247C27.2753 26.3831 27.5321 26.4744 27.8018 26.4788H40.7604C41.0296 26.4738 41.2857 26.3823 41.4739 26.2239C41.6621 26.0655 41.7675 25.8528 41.7675 25.6313C41.7675 25.4099 41.6621 25.1972 41.4739 25.0388C41.2857 24.8804 41.0296 24.7887 40.7605 24.7837ZM40.7605 21.6368H36.0797C35.8064 21.6368 35.5444 21.7261 35.3511 21.885C35.1579 22.044 35.0494 22.2595 35.0494 22.4843C35.0494 22.7091 35.1579 22.9247 35.3511 23.0837C35.5444 23.2426 35.8064 23.3319 36.0797 23.3319H40.7605C41.0294 23.3266 41.2851 23.2349 41.473 23.0766C41.661 22.9182 41.7662 22.7057 41.7662 22.4844C41.7662 22.2631 41.661 22.0506 41.473 21.8923C41.2851 21.7339 41.0294 21.6421 40.7605 21.6368Z" fill="white"/>
</svg>
