<svg width="48" height="59" viewBox="0 0 48 59" fill="none" xmlns="http://www.w3.org/2000/svg">
<path d="M12.3572 42.5097L14.215 42.4916C15.1392 42.4825 15.9618 41.8642 16.2113 40.9915L16.6365 39.5096C17.1078 39.3459 17.5792 39.155 18.0228 38.9277L19.4 39.646C20.2133 40.0733 21.2392 39.9187 21.8862 39.2641L23.1893 37.955C23.8363 37.3095 23.9657 36.3003 23.5128 35.5094L22.7457 34.173C22.9398 33.7729 23.1062 33.3638 23.254 32.9547C23.2725 32.9002 23.291 32.8547 23.3095 32.8002L24.8068 32.3456C25.6848 32.082 26.2948 31.2637 26.2856 30.3546L26.2671 28.5272C26.2578 27.6181 25.6293 26.809 24.7421 26.5635L23.2356 26.1453C23.2078 26.0726 23.1893 25.9998 23.1616 25.9271C23.0137 25.5362 22.8381 25.1453 22.644 24.7725L23.3742 23.427C23.8086 22.6269 23.6515 21.6269 22.9953 20.9905L21.6736 19.7086C21.0081 19.0722 19.9915 18.9359 19.1781 19.3813L17.7825 20.1541L16.4239 19.6177L15.9618 18.1176C15.6937 17.254 14.8712 16.6539 13.9562 16.6539C13.9469 16.6539 13.9377 16.6539 13.9377 16.6539L12.08 16.6721C11.1557 16.6812 10.3424 17.2994 10.0836 18.1722L9.64919 19.6541C9.16859 19.8177 8.70647 20.0177 8.26283 20.245L6.89495 19.5268C6.07238 19.0995 5.05571 19.2541 4.3995 19.9086L3.10556 21.2178C2.45859 21.8724 2.32919 22.8815 2.78207 23.6725L3.54919 24.9998C3.31813 25.4635 3.12404 25.918 2.97616 26.3817L1.47889 26.8362C0.600862 27.0999 -0.00913882 27.9272 0.000103606 28.8273L0.0278306 30.6546C0.0370731 31.5547 0.665558 32.3638 1.55283 32.6093L3.05935 33.0275C3.22571 33.5002 3.42904 33.9548 3.6601 34.4003L2.92995 35.7458C2.49556 36.5458 2.65268 37.5549 3.30889 38.1823L4.63056 39.455C5.28677 40.0914 6.31268 40.2278 7.11677 39.7823L8.48465 39.0368C8.93753 39.255 9.39965 39.4369 9.8895 39.5914L10.3516 41.0551C10.6196 41.9097 11.4422 42.5097 12.3572 42.5097C12.348 42.5097 12.348 42.5097 12.3572 42.5097ZM11.8397 40.6006L11.2574 38.7459C11.1834 38.4914 10.9801 38.3004 10.7213 38.2277C10.0559 38.0459 9.42738 37.7913 8.83586 37.4822C8.71571 37.4186 8.58632 37.3913 8.46617 37.3913C8.33677 37.3913 8.19813 37.4277 8.08723 37.4913L6.35889 38.4459C6.15556 38.555 5.90601 38.5186 5.73965 38.3641L4.41798 37.0913C4.25162 36.9367 4.21465 36.6822 4.32556 36.4822L5.2498 34.7639C5.37919 34.5275 5.36995 34.2457 5.24056 34.0184C4.90783 33.4366 4.63056 32.8184 4.42722 32.1729C4.35329 31.9183 4.14995 31.7274 3.89116 31.6547L1.98722 31.1183C1.76541 31.0546 1.60829 30.8546 1.60829 30.6273L1.58056 28.8C1.58056 28.5727 1.72844 28.3727 1.95025 28.3L3.84495 27.7272C4.10374 27.6454 4.29783 27.4454 4.37177 27.1908C4.53813 26.5817 4.78768 25.9726 5.13889 25.3362C5.26829 25.0998 5.26829 24.818 5.12965 24.5907L4.15919 22.8997C4.04829 22.6997 4.07601 22.4451 4.24238 22.2906L5.53632 20.9814C5.70268 20.8178 5.95222 20.7814 6.1648 20.8905L7.90238 21.8087C8.14268 21.936 8.42919 21.9269 8.66026 21.7996C9.25177 21.4723 9.87101 21.2087 10.5272 21.0087C10.7768 20.936 10.9801 20.7359 11.0448 20.4905L11.5993 18.6086C11.664 18.3904 11.8674 18.2358 12.0984 18.2358L13.9562 18.2176C14.178 18.2176 14.3998 18.3631 14.4645 18.5813L15.0375 20.4359C15.1115 20.6632 15.2778 20.845 15.4996 20.9269L17.5515 21.736C17.7733 21.8269 18.0228 21.8087 18.2262 21.6905L19.9545 20.7359C20.1578 20.6269 20.4166 20.6541 20.5737 20.8178L21.8954 22.0997C22.0618 22.2542 22.0987 22.5088 21.9878 22.7088L21.0636 24.427C20.9342 24.6634 20.9434 24.9452 21.0728 25.1725C21.3131 25.5907 21.5257 26.0271 21.6828 26.4635C21.7475 26.6453 21.8122 26.8272 21.8677 27.0181C21.9416 27.2726 22.145 27.4635 22.4037 27.5363L24.3077 28.0636C24.5295 28.1272 24.6866 28.3272 24.6866 28.5545L24.7051 30.3819C24.7051 30.6092 24.5572 30.8092 24.3354 30.8819L22.45 31.4547C22.4222 31.4637 22.3853 31.4819 22.3575 31.491C22.145 31.5819 21.9786 31.7728 21.9139 31.991C21.8677 32.1456 21.8215 32.3092 21.766 32.4638C21.5996 32.9365 21.3963 33.4002 21.156 33.8457C21.0359 34.073 21.0359 34.3548 21.1653 34.5821L22.1357 36.2731C22.2466 36.4731 22.2189 36.7185 22.0525 36.8822L20.7493 38.1913C20.583 38.355 20.3334 38.3914 20.1301 38.2913L18.374 37.3731C18.1337 37.2458 17.8472 37.2549 17.6162 37.3822C17.0246 37.7186 16.3962 37.9822 15.7492 38.1641C15.4904 38.2368 15.2871 38.4368 15.2131 38.6914L14.6771 40.5642C14.6124 40.7824 14.409 40.9369 14.178 40.9369L12.3203 40.9551C12.08 40.9642 11.9043 40.8187 11.8397 40.6006Z" fill="white"/>
<path d="M13.2075 35.8639C16.6364 35.8185 19.3999 33.0365 19.363 29.6636C19.326 26.2907 16.5348 23.5633 13.0596 23.6179C9.62145 23.6542 6.86721 26.4362 6.90418 29.8091C6.92266 31.4455 7.58811 32.982 8.78039 34.1275C9.95418 35.2548 11.4977 35.873 13.1243 35.873C13.1613 35.8639 13.189 35.8639 13.2075 35.8639ZM8.48463 29.7909C8.4569 27.2726 10.518 25.1907 13.0874 25.1634C13.1058 25.1634 13.1243 25.1634 13.1336 25.1634C15.6752 25.1634 17.764 27.1817 17.801 29.6818C17.8287 32.2092 15.7584 34.2911 13.1983 34.3184C11.9598 34.3366 10.786 33.8729 9.89872 33.0092C8.99296 32.1637 8.49387 31.0091 8.48463 29.7909Z" fill="white"/>
<path d="M32.589 3.95325H25.9714C25.537 3.95325 25.1858 4.29872 25.1858 4.72601C25.1858 5.15331 25.537 5.49878 25.9714 5.49878H32.589C33.0234 5.49878 33.3746 5.15331 33.3746 4.72601C33.3746 4.29872 33.0234 3.95325 32.589 3.95325Z" fill="white"/>
<path d="M42.4506 35.4819H38.1436C36.9514 35.4819 35.9717 36.4365 35.9717 37.6184V41.855C35.9717 43.0278 36.9421 43.9914 38.1436 43.9914H42.4506C43.6429 43.9914 44.6226 43.0368 44.6226 41.855V37.6184C44.6226 36.4365 43.6429 35.4819 42.4506 35.4819ZM43.0514 41.855C43.0514 42.1823 42.7833 42.4459 42.4506 42.4459H38.1436C37.8109 42.4459 37.5429 42.1823 37.5429 41.855V37.6184C37.5429 37.2911 37.8109 37.0275 38.1436 37.0275H42.4506C42.7833 37.0275 43.0514 37.2911 43.0514 37.6184V41.855Z" fill="white"/>
<path d="M25.4814 37.6184V41.855C25.4814 43.0278 26.4519 43.9914 27.6534 43.9914H31.9604C33.1527 43.9914 34.1324 43.0368 34.1324 41.855V37.6184C34.1324 36.4456 33.1619 35.4819 31.9604 35.4819H27.6534C26.4611 35.4819 25.4814 36.4365 25.4814 37.6184ZM32.5704 37.6184V41.855C32.5704 42.1823 32.3024 42.4459 31.9696 42.4459H27.6627C27.3299 42.4459 27.0619 42.1823 27.0619 41.855V37.6184C27.0619 37.2911 27.3299 37.0275 27.6627 37.0275H31.9696C32.2931 37.0275 32.5704 37.2911 32.5704 37.6184Z" fill="white"/>
<path d="M44.6226 27.5179C44.6226 26.3452 43.6521 25.3815 42.4506 25.3815H38.1436C36.9514 25.3815 35.9717 26.3361 35.9717 27.5179V31.7545C35.9717 32.9273 36.9421 33.891 38.1436 33.891H42.4506C43.6429 33.891 44.6226 32.9364 44.6226 31.7545V27.5179ZM43.0514 31.7545C43.0514 32.0818 42.7833 32.3454 42.4506 32.3454H38.1436C37.8109 32.3454 37.5429 32.0818 37.5429 31.7545V27.5179C37.5429 27.1906 37.8109 26.927 38.1436 26.927H42.4506C42.7833 26.927 43.0514 27.1906 43.0514 27.5179V31.7545Z" fill="white"/>
<path d="M29.8069 49.9646C28.3836 49.9646 27.2283 51.101 27.2283 52.5011C27.2283 53.9012 28.3836 55.0376 29.8069 55.0376C31.2302 55.0376 32.3855 53.9012 32.3855 52.5011C32.3948 51.1101 31.2395 49.9646 29.8069 49.9646ZM29.8069 53.5011C29.2524 53.5011 28.7995 53.0557 28.7995 52.5102C28.7995 51.9647 29.2524 51.5192 29.8069 51.5192C30.3615 51.5192 30.8143 51.9647 30.8143 52.5102C30.8236 53.0557 30.3707 53.5011 29.8069 53.5011Z" fill="white"/>
<path d="M32.1821 14.6447C31.8771 14.3447 31.378 14.3447 31.073 14.6447L28.7254 16.9539C28.5776 17.0994 28.4944 17.2994 28.4944 17.4994C28.4944 17.6994 28.5776 17.8994 28.7254 18.0449L31.073 20.3541C31.2301 20.5086 31.4242 20.5813 31.6276 20.5813C31.8309 20.5813 32.025 20.5086 32.1821 20.3541C32.4871 20.054 32.4871 19.5631 32.1821 19.2631L30.3891 17.4994L32.1821 15.7357C32.4964 15.4356 32.4964 14.9447 32.1821 14.6447Z" fill="white"/>
<path d="M40.1491 14.6447C39.8441 14.3447 39.345 14.3447 39.04 14.6447C38.735 14.9447 38.735 15.4356 39.04 15.7357L40.8331 17.4994L39.04 19.2631C38.735 19.5631 38.735 20.054 39.04 20.3541C39.1972 20.5086 39.3912 20.5813 39.5946 20.5813C39.7979 20.5813 39.992 20.5086 40.1491 20.3541L42.4967 18.0449C42.6446 17.8994 42.7278 17.6994 42.7278 17.4994C42.7278 17.2994 42.6446 17.0994 42.4967 16.9539L40.1491 14.6447Z" fill="white"/>
<path d="M38.4855 10.89C38.0881 10.7172 37.626 10.9082 37.4504 11.2991L32.3209 23.0906C32.1545 23.4815 32.3393 23.9361 32.7368 24.1088C32.8384 24.1543 32.9401 24.1724 33.0418 24.1724C33.3468 24.1724 33.6333 23.9997 33.7627 23.6997L38.8922 11.9082C39.0678 11.5173 38.883 11.0627 38.4855 10.89Z" fill="white"/>
<path d="M43.0055 0.398438H11.9945C9.24388 0.398438 7 2.37268 7 4.79272V13.927C7 14.3546 7.39294 14.7003 7.87894 14.7003C8.36494 14.7003 8.75788 14.3546 8.75788 13.927V9.16881H46.2525V46.4611H8.75788V45.2965C8.75788 44.8689 8.36494 44.5232 7.87894 44.5232C7.39294 44.5232 7 44.8689 7 45.2965V54.2307C7 56.6507 9.24388 58.6249 11.9945 58.6249H43.0055C45.7561 58.6249 48 56.6507 48 54.2307V4.79272C48 2.37268 45.7561 0.398438 43.0055 0.398438ZM8.75788 7.62216V4.79272C8.75788 3.21878 10.2159 1.94508 11.9945 1.94508H43.0055C44.7944 1.94508 46.2421 3.22788 46.2421 4.79272V7.62216H8.75788ZM43.0055 57.0783H11.9945C10.2055 57.0783 8.75788 55.7955 8.75788 54.2307V48.0168H46.2525V54.2307C46.2421 55.7955 44.7944 57.0783 43.0055 57.0783Z" fill="white"/>
</svg>
