<svg width="48" height="50" viewBox="0 0 48 50" fill="none" xmlns="http://www.w3.org/2000/svg">
<path fill-rule="evenodd" clip-rule="evenodd" d="M23.9998 17.7423C17.3675 17.7423 12.1965 13.9151 12.1965 9.02845C12.1965 4.21019 17.4799 0.280396 23.9998 0.280396C30.5759 0.280396 35.8593 4.17601 35.8593 9.02845C35.8593 13.9492 30.6883 17.7423 23.9998 17.7423ZM23.9998 1.989C18.3511 1.989 13.5455 5.23535 13.5455 9.06262C13.5455 12.9241 18.3511 16.1362 23.9998 16.1362C29.789 16.1362 34.5104 12.9582 34.5104 9.06262C34.5104 5.23535 29.7047 1.989 23.9998 1.989Z" fill="white"/>
<path fill-rule="evenodd" clip-rule="evenodd" d="M23.9998 25.6704C17.3675 25.6704 12.1965 21.8431 12.1965 16.9565C12.1965 16.4781 12.5057 16.1022 12.8991 16.1022C13.2644 16.1022 13.6017 16.4781 13.6017 16.9565C13.6017 20.7837 18.3792 24.0301 24.056 24.0301C29.8171 24.0301 34.5385 20.8521 34.5385 16.9565C34.5385 16.4781 34.8476 16.1022 35.241 16.1022C35.6345 16.1022 35.9436 16.4781 35.9436 16.9565C35.8593 21.8431 30.6883 25.6704 23.9998 25.6704Z" fill="white"/>
<path fill-rule="evenodd" clip-rule="evenodd" d="M23.9998 33.5639C17.3675 33.5639 12.1965 29.7025 12.1965 24.8159C12.1965 24.3374 12.5057 23.9615 12.8991 23.9615C13.2644 23.9615 13.6017 24.3374 13.6017 24.8159C13.6017 28.6773 18.3792 31.8895 24.056 31.8895C29.8171 31.8895 34.5385 28.7115 34.5385 24.8159C34.5385 24.3374 34.8476 23.9615 35.241 23.9615C35.6345 23.9615 35.9436 24.3374 35.9436 24.8159C35.8593 29.7025 30.6883 33.5639 23.9998 33.5639Z" fill="white"/>
<path fill-rule="evenodd" clip-rule="evenodd" d="M23.9998 41.4235C17.4799 41.4235 12.1965 37.5279 12.1965 32.7096C12.1965 32.2312 12.5057 31.8553 12.8991 31.8553C13.2644 31.8553 13.6017 32.2312 13.6017 32.7096C13.6017 36.5369 18.3792 39.7833 24.056 39.7833C29.7328 39.7833 34.5385 36.5369 34.5385 32.7096C34.5385 32.2312 34.8476 31.8553 35.241 31.8553C35.6345 31.8553 35.9436 32.2312 35.9436 32.7096C35.8593 37.5279 30.5759 41.4235 23.9998 41.4235Z" fill="white"/>
<path fill-rule="evenodd" clip-rule="evenodd" d="M12.8432 33.5641C12.4498 33.5641 12.1406 33.1882 12.1406 32.7098V9.06268C12.1406 8.58427 12.4498 8.20837 12.8432 8.20837C13.2366 8.20837 13.5458 8.58427 13.5458 9.06268V32.7439C13.5458 33.1882 13.2366 33.5641 12.8432 33.5641Z" fill="white"/>
<path fill-rule="evenodd" clip-rule="evenodd" d="M35.2131 33.5641C34.8196 33.5641 34.5105 33.1882 34.5105 32.7098V9.06268C34.5105 8.58427 34.8196 8.20837 35.2131 8.20837C35.6065 8.20837 35.9157 8.58427 35.9157 9.06268V32.7439C35.8594 33.1882 35.5503 33.5641 35.2131 33.5641Z" fill="white"/>
<path fill-rule="evenodd" clip-rule="evenodd" d="M35.213 20.6128C34.9882 20.6128 34.7915 20.4419 34.6509 20.2711C34.4261 19.8952 34.5104 19.3484 34.8196 19.1434L38.1357 16.2729C38.2481 16.1704 38.3605 16.1362 38.5292 16.1362H43.3629C43.7563 16.1362 44.0655 16.5121 44.0655 16.9905C44.0655 17.4689 43.7563 17.8448 43.3629 17.8448H38.7259L35.6065 20.5444C35.494 20.5444 35.3254 20.6128 35.213 20.6128Z" fill="white"/>
<path fill-rule="evenodd" clip-rule="evenodd" d="M40.2716 23.7908H35.2131C34.8196 23.7908 34.5105 23.4149 34.5105 22.9365C34.5105 22.458 34.8196 22.0822 35.2131 22.0822H40.2716C40.6651 22.0822 40.9742 22.458 40.9742 22.9365C40.9742 23.4149 40.637 23.7908 40.2716 23.7908Z" fill="white"/>
<path fill-rule="evenodd" clip-rule="evenodd" d="M43.6722 29.8051H38.2202C38.0516 29.8051 37.9111 29.771 37.7986 29.6001L34.7354 26.4904C34.4544 26.1829 34.4263 25.6703 34.6511 25.2944C34.904 24.9527 35.3256 24.9185 35.6347 25.1919L38.5293 28.1307H43.7284C44.0937 28.1307 44.431 28.5066 44.431 28.985C44.431 29.4634 44.0656 29.8051 43.6722 29.8051Z" fill="white"/>
<path fill-rule="evenodd" clip-rule="evenodd" d="M12.843 20.6129C12.7306 20.6129 12.5619 20.5445 12.4495 20.442L9.30198 17.7424H4.66498C4.27154 17.7424 3.9624 17.3665 3.9624 16.8881C3.9624 16.4097 4.27154 16.0338 4.66498 16.0338H9.52681C9.69542 16.0338 9.80784 16.1022 9.92025 16.1705L13.2645 19.041C13.6017 19.3143 13.658 19.7927 13.4331 20.1686C13.2645 20.5104 13.0959 20.6129 12.843 20.6129Z" fill="white"/>
<path fill-rule="evenodd" clip-rule="evenodd" d="M12.8432 23.7908H7.78461C7.39116 23.7908 7.08203 23.4149 7.08203 22.9365C7.08203 22.458 7.39116 22.0822 7.78461 22.0822H12.8432C13.2366 22.0822 13.5457 22.458 13.5457 22.9365C13.5457 23.4149 13.2366 23.7908 12.8432 23.7908Z" fill="white"/>
<path fill-rule="evenodd" clip-rule="evenodd" d="M9.83621 29.805H4.38422C3.99077 29.805 3.68164 29.4291 3.68164 28.9507C3.68164 28.4723 3.99077 28.0964 4.38422 28.0964H9.58328L12.4217 25.1576C12.7027 24.8842 13.1243 24.9184 13.4053 25.2601C13.6301 25.5677 13.602 26.1144 13.321 26.422L10.2859 29.5658C10.1453 29.7708 10.0048 29.805 9.83621 29.805Z" fill="white"/>
<path fill-rule="evenodd" clip-rule="evenodd" d="M2.55738 32.0262C1.15222 32.0262 0 30.6593 0 28.9849C0 27.2763 1.15222 25.9094 2.55738 25.9094C3.90632 25.9094 5.03045 27.2763 5.03045 28.9849C5.03045 30.6593 3.96253 32.0262 2.55738 32.0262ZM2.55738 27.5839C1.91101 27.5839 1.37705 28.2331 1.37705 28.9849C1.37705 29.7709 1.8829 30.386 2.55738 30.386C3.17564 30.386 3.6815 29.7709 3.6815 28.9849C3.6815 28.199 3.17564 27.5839 2.55738 27.5839Z" fill="white"/>
<path fill-rule="evenodd" clip-rule="evenodd" d="M23.9999 44.2256C23.6065 44.2256 23.2974 43.8497 23.2974 43.3713V40.5691C23.2974 40.0907 23.6065 39.7148 23.9999 39.7148C24.3934 39.7148 24.7025 40.0907 24.7025 40.5691V43.3713C24.7025 43.8497 24.3934 44.2256 23.9999 44.2256Z" fill="white"/>
<path fill-rule="evenodd" clip-rule="evenodd" d="M40.4122 46.4128H26.0515C25.6581 46.4128 25.3489 46.0369 25.3489 45.5585C25.3489 45.0801 25.6581 44.7042 26.0515 44.7042H40.4122C40.7775 44.7042 41.1147 45.0801 41.1147 45.5585C41.1147 46.0369 40.7494 46.4128 40.4122 46.4128ZM22.0328 46.4128H7.61591C7.22246 46.4128 6.91333 46.0369 6.91333 45.5585C6.91333 45.0801 7.22246 44.7042 7.61591 44.7042H22.0328C22.3981 44.7042 22.7353 45.0801 22.7353 45.5585C22.7353 46.0369 22.3981 46.4128 22.0328 46.4128Z" fill="white"/>
<path fill-rule="evenodd" clip-rule="evenodd" d="M26.0516 49.1122H22.0329C21.6395 49.1122 21.3303 48.7363 21.3303 48.2579V43.3713C21.3303 42.8929 21.6395 42.517 22.0329 42.517H26.0516C26.417 42.517 26.7542 42.8929 26.7542 43.3713V48.2579C26.698 48.7363 26.417 49.1122 26.0516 49.1122ZM22.6793 47.4719H25.3491V44.2256H22.6793V47.4719Z" fill="white"/>
<path fill-rule="evenodd" clip-rule="evenodd" d="M43.054 49.6248C41.2273 49.6248 39.7097 47.8478 39.7097 45.5925C39.7097 43.3713 41.2273 41.5602 43.054 41.5602C44.8807 41.5602 46.3701 43.3713 46.3701 45.5925C46.3701 47.8478 44.8807 49.6248 43.054 49.6248ZM43.054 43.2346C41.958 43.2346 41.0587 44.3281 41.0587 45.5925C41.0587 46.891 41.958 47.9845 43.054 47.9845C44.15 47.9845 44.9931 46.891 44.9931 45.5925C44.9931 44.3281 44.15 43.2346 43.054 43.2346Z" fill="white"/>
<path fill-rule="evenodd" clip-rule="evenodd" d="M2.81025 20.0317C1.46131 20.0317 0.309082 18.6648 0.309082 16.9562C0.309082 15.2818 1.46131 13.9149 2.81025 13.9149C4.1873 13.9149 5.31142 15.2818 5.31142 16.9562C5.36763 18.6648 4.21541 20.0317 2.81025 20.0317ZM2.81025 15.5552C2.19199 15.5552 1.68613 16.1703 1.68613 16.9562C1.68613 17.7422 2.19199 18.3573 2.81025 18.3573C3.45662 18.3573 3.96248 17.7422 3.96248 16.9562C3.99058 16.1703 3.45662 15.5552 2.81025 15.5552Z" fill="white"/>
<path fill-rule="evenodd" clip-rule="evenodd" d="M45.2461 20.0317C43.8409 20.0317 42.6887 18.6648 42.6887 16.9562C42.6887 15.2818 43.8409 13.9149 45.2461 13.9149C46.595 13.9149 47.7473 15.2818 47.7473 16.9562C47.7473 18.6648 46.595 20.0317 45.2461 20.0317ZM45.2461 15.5552C44.5716 15.5552 44.0658 16.1703 44.0658 16.9562C44.0658 17.7422 44.5716 18.3573 45.2461 18.3573C45.8644 18.3573 46.3702 17.7422 46.3702 16.9562C46.3702 16.1703 45.8644 15.5552 45.2461 15.5552Z" fill="white"/>
<path fill-rule="evenodd" clip-rule="evenodd" d="M45.4989 32.0262C44.15 32.0262 43.0259 30.6593 43.0259 28.9849C43.0259 27.2763 44.15 25.9094 45.4989 25.9094C46.876 25.9094 48.0001 27.2763 48.0001 28.9849C48.0001 30.6593 46.876 32.0262 45.4989 32.0262ZM45.4989 27.5839C44.8807 27.5839 44.3748 28.199 44.3748 28.9849C44.3748 29.7709 44.8807 30.386 45.4989 30.386C46.1453 30.386 46.6512 29.7709 46.6512 28.9849C46.6512 28.199 46.1453 27.5839 45.4989 27.5839Z" fill="white"/>
<path fill-rule="evenodd" clip-rule="evenodd" d="M5.00247 49.6248C3.17577 49.6248 1.6582 47.8478 1.6582 45.5925C1.6582 43.3713 3.17577 41.5602 5.00247 41.5602C6.82916 41.5602 8.31863 43.3713 8.31863 45.5925C8.31863 47.8478 6.82916 49.6248 5.00247 49.6248ZM5.00247 43.2346C3.90645 43.2346 3.00715 44.3281 3.00715 45.5925C3.00715 46.891 3.90645 47.9845 5.00247 47.9845C6.09848 47.9845 6.94158 46.891 6.94158 45.5925C6.94158 44.3281 6.07038 43.2346 5.00247 43.2346Z" fill="white"/>
</svg>
