<svg width="64" height="59" viewBox="0 0 64 59" fill="none" xmlns="http://www.w3.org/2000/svg">
<path d="M45.9246 58.9999H18.0806C16.6805 58.9988 15.3381 58.4182 14.348 57.3855C13.358 56.3528 12.8012 54.9524 12.8 53.4918V49.2523C12.8 49.0762 12.8671 48.9072 12.9865 48.7827C13.1059 48.6581 13.2679 48.5881 13.4367 48.5881C13.6056 48.5881 13.7675 48.6581 13.8869 48.7827C14.0063 48.9072 14.0734 49.0762 14.0734 49.2523V53.4951C14.0746 54.6034 14.4971 55.6659 15.2484 56.4495C15.9997 57.2331 17.0182 57.6738 18.0806 57.6748H45.9246C46.955 57.6785 47.9468 57.2663 48.6926 56.5245C49.4384 55.7828 49.8804 54.7689 49.9261 53.695C49.9337 53.5189 50.008 53.3531 50.1328 53.2341C50.2576 53.1152 50.4225 53.0528 50.5914 53.0607C50.7602 53.0687 50.9192 53.1463 51.0332 53.2764C51.1472 53.4066 51.207 53.5787 51.1994 53.7548C51.1385 55.1701 50.5556 56.506 49.5726 57.4834C48.5896 58.4609 47.2826 59.0042 45.9246 58.9999Z" fill="white"/>
<path d="M45.9169 59H18.0793C16.6796 58.9989 15.3375 58.4111 14.3477 57.3657C13.3578 56.3203 12.8012 54.9027 12.8 53.4242V5.57579C12.8012 4.09727 13.3578 2.67966 14.3477 1.63425C15.3375 0.588838 16.6796 0.00106829 18.0793 0H45.9169C47.3169 0.00142156 48.6592 0.589176 49.6496 1.6344C50.64 2.67962 51.1975 4.097 51.2001 5.57579L51.1873 53.6575V53.6871C51.1272 55.1197 50.5453 56.4725 49.5631 57.4625C48.581 58.4526 47.2746 59.0035 45.9169 59ZM18.0793 1.3447C17.0172 1.34577 15.9989 1.79186 15.2478 2.5851C14.4968 3.37833 14.0743 4.4539 14.0731 5.57579V53.4242C14.0743 54.5461 14.4968 55.6217 15.2478 56.4149C15.9989 57.2081 17.0172 57.6542 18.0793 57.6553H45.9169C46.9446 57.6588 47.934 57.2435 48.6791 56.4958C49.4241 55.7481 49.8675 54.7257 49.9168 53.6414L49.9296 5.57579C49.9274 4.45353 49.504 3.37797 48.7523 2.58485C48.0007 1.79173 46.9819 1.34576 45.9195 1.3447H18.0793Z" fill="white"/>
<path d="M50.5629 10.4118H13.4365C13.2677 10.4118 13.1058 10.3418 12.9865 10.2174C12.8671 10.0929 12.8 9.92404 12.8 9.748V5.50922C12.8012 4.04846 13.3582 2.64789 14.3486 1.61497C15.3391 0.582059 16.6821 0.00123041 18.0828 0H45.9173C47.318 0.00123041 48.661 0.582059 49.6515 1.61497C50.6419 2.64789 51.1989 4.04846 51.2001 5.50922V9.748C51.2001 9.83523 51.1836 9.92159 51.1515 10.0022C51.1195 10.0827 51.0726 10.1559 51.0134 10.2176C50.9542 10.2792 50.884 10.3281 50.8067 10.3614C50.7294 10.3947 50.6466 10.4119 50.5629 10.4118ZM14.073 9.08424H49.9265V5.50922C49.9265 4.40017 49.504 3.33654 48.752 2.55231C48 1.76809 46.9801 1.32752 45.9166 1.32752H18.0822C17.0187 1.32752 15.9988 1.76809 15.2468 2.55231C14.4948 3.33654 14.0724 4.40017 14.0724 5.50922L14.073 9.08424Z" fill="white"/>
<path d="M45.9197 58.9999H18.083C16.6822 58.9987 15.3392 58.4177 14.3487 57.3846C13.3582 56.3515 12.8012 54.9507 12.8 53.4896V49.252C12.8 49.0759 12.8671 48.9071 12.9865 48.7826C13.1058 48.6581 13.2677 48.5881 13.4365 48.5881H50.5636C50.7324 48.5881 50.8943 48.6581 51.0136 48.7826C51.133 48.9071 51.2001 49.0759 51.2001 49.252V53.4916C51.1984 54.9519 50.6415 56.3518 49.6516 57.3844C48.6618 58.417 47.3196 58.998 45.9197 58.9999ZM14.0743 49.9159V53.4916C14.0743 54.6009 14.4968 55.6647 15.2488 56.4491C16.0008 57.2335 17.0208 57.6741 18.0843 57.6741H45.9197C46.9832 57.6741 48.0031 57.2335 48.7551 56.4491C49.5071 55.6647 49.9296 54.6009 49.9296 53.4916V49.9159H14.0743Z" fill="white"/>
<path d="M36.9076 6.07343H27.0925C26.923 6.07343 26.7604 5.98202 26.6406 5.8193C26.5207 5.65659 26.4534 5.4359 26.4534 5.20578C26.4534 4.97567 26.5207 4.75498 26.6406 4.59226C26.7604 4.42955 26.923 4.33813 27.0925 4.33813H36.9076C37.0771 4.33813 37.2396 4.42955 37.3595 4.59226C37.4794 4.75498 37.5467 4.97567 37.5467 5.20578C37.5467 5.4359 37.4794 5.65659 37.3595 5.8193C37.2396 5.98202 37.0771 6.07343 36.9076 6.07343Z" fill="white"/>
<path d="M31.9994 56.397C31.4087 56.3969 30.8313 56.2441 30.3402 55.958C29.8491 55.6719 29.4664 55.2653 29.2405 54.7897C29.0146 54.314 28.9556 53.7906 29.071 53.2857C29.1863 52.7808 29.4709 52.3171 29.8887 51.9531C30.3065 51.5892 30.8387 51.3414 31.4181 51.2411C31.9975 51.1407 32.598 51.1924 33.1437 51.3895C33.6894 51.5867 34.1557 51.9204 34.4838 52.3485C34.8119 52.7766 34.9869 53.2799 34.9868 53.7947C34.9857 54.4848 34.6705 55.1463 34.1105 55.6342C33.5505 56.1221 32.7912 56.3964 31.9994 56.397ZM31.9994 52.3861C31.6804 52.3862 31.3687 52.4687 31.1035 52.6233C30.8384 52.7778 30.6318 52.9974 30.5098 53.2542C30.3878 53.5111 30.356 53.7937 30.4183 54.0663C30.4806 54.3389 30.6343 54.5893 30.8599 54.7859C31.0855 54.9824 31.3729 55.1162 31.6857 55.1704C31.9985 55.2246 32.3228 55.1967 32.6175 55.0903C32.9121 54.9839 33.164 54.8037 33.3412 54.5726C33.5184 54.3414 33.6129 54.0697 33.6129 53.7917C33.6117 53.4194 33.4411 53.0628 33.1387 52.7998C32.8363 52.5369 32.4266 52.3892 31.9994 52.3891V52.3861Z" fill="white"/>
<path d="M35.3232 38.1765H28.6821C28.5837 38.1765 28.4868 38.1512 28.3993 38.1028C28.3118 38.0543 28.2363 37.984 28.1792 37.8978L26.108 34.7782C25.7872 34.2905 25.6103 33.71 25.6005 33.1124C25.5907 32.5149 25.7484 31.9281 26.053 31.4284L30.4209 24.3391C30.5936 24.0583 30.8284 23.8279 31.1041 23.6686C31.3798 23.5094 31.6879 23.4262 32.0008 23.4265H32.0051C32.3171 23.4267 32.6242 23.5104 32.8987 23.67C33.1732 23.8297 33.4065 24.0603 33.5776 24.3411L37.9449 31.4291C38.2502 31.9281 38.4087 32.5145 38.3997 33.112C38.3908 33.7094 38.2149 34.29 37.8948 34.7782L35.8261 37.8978C35.769 37.984 35.6935 38.0543 35.606 38.1028C35.5185 38.1512 35.4216 38.1765 35.3232 38.1765ZM28.9966 36.8462H35.005L36.8883 34.0059C37.0639 33.7376 37.1605 33.4185 37.1653 33.0902C37.1702 32.7619 37.0831 32.4397 36.9155 32.1654L32.547 25.0748C32.4884 24.9767 32.4077 24.8961 32.3124 24.8406C32.2171 24.785 32.1104 24.7562 32.002 24.7568C31.8928 24.7558 31.7851 24.7845 31.6888 24.8402C31.5926 24.8958 31.511 24.9768 31.4515 25.0755L27.0824 32.1648C26.9153 32.4397 26.8289 32.7624 26.8345 33.0909C26.8402 33.4194 26.9375 33.7385 27.1139 34.0066L28.9966 36.8462Z" fill="white"/>
<path d="M35.2461 50.3235H28.7537C28.5962 50.3235 28.4452 50.2513 28.3338 50.1226C28.2225 49.994 28.1599 49.8195 28.1599 49.6375V37.9948C28.1599 37.8129 28.2225 37.6384 28.3338 37.5098C28.4452 37.3811 28.5962 37.3088 28.7537 37.3088H35.2461C35.4036 37.3088 35.5546 37.3811 35.666 37.5098C35.7774 37.6384 35.8399 37.8129 35.8399 37.9948V49.6375C35.8399 49.8195 35.7774 49.994 35.666 50.1226C35.5546 50.2513 35.4036 50.3235 35.2461 50.3235ZM29.3487 48.9516H34.6523V38.6808H29.3475L29.3487 48.9516Z" fill="white"/>
<path d="M31.9999 31.2353C31.8867 31.2353 31.7782 31.1629 31.6982 31.0341C31.6182 30.9052 31.5732 30.7304 31.5732 30.5481V24.1137C31.5732 23.9315 31.6182 23.7567 31.6982 23.6278C31.7782 23.4989 31.8867 23.4265 31.9999 23.4265C32.1131 23.4265 32.2216 23.4989 32.3016 23.6278C32.3816 23.7567 32.4266 23.9315 32.4266 24.1137V30.5481C32.4266 30.7304 32.3816 30.9052 32.3016 31.0341C32.2216 31.1629 32.1131 31.2353 31.9999 31.2353Z" fill="white"/>
<path d="M31.9974 34.7059C31.5755 34.7052 31.1632 34.552 30.8126 34.2654C30.4621 33.9789 30.1891 33.572 30.0281 33.0961C29.8671 32.6202 29.8254 32.0968 29.9082 31.592C29.991 31.0872 30.1947 30.6237 30.4934 30.2601C30.7921 29.8965 31.1725 29.6492 31.5864 29.5494C32.0003 29.4496 32.4292 29.5018 32.8188 29.6994C33.2085 29.897 33.5413 30.2311 33.7753 30.6595C34.0093 31.0879 34.1339 31.5913 34.1334 32.1061C34.1331 32.448 34.0776 32.7864 33.9701 33.1021C33.8626 33.4178 33.7052 33.7046 33.5069 33.946C33.3085 34.1874 33.0731 34.3788 32.8141 34.5092C32.5551 34.6396 32.2776 34.7064 31.9974 34.7059ZM31.9974 31.0989C31.8349 31.0995 31.6761 31.1588 31.5412 31.2694C31.4063 31.38 31.3012 31.5368 31.2392 31.7202C31.1773 31.9035 31.1612 32.1051 31.193 32.2996C31.2249 32.4941 31.3032 32.6727 31.4181 32.8129C31.5331 32.9532 31.6795 33.0487 31.8388 33.0876C31.9982 33.1264 32.1635 33.1068 32.3137 33.0312C32.464 32.9556 32.5926 32.8274 32.6832 32.6628C32.7738 32.4981 32.8224 32.3045 32.823 32.1061C32.8232 31.9738 32.802 31.8426 32.7606 31.7203C32.7193 31.5979 32.6585 31.4868 32.5817 31.3932C32.505 31.2996 32.4139 31.2254 32.3136 31.1749C32.2134 31.1244 32.1059 31.0985 31.9974 31.0989Z" fill="white"/>
<path d="M43.7398 29.5001C43.5885 29.5 43.4422 29.4444 43.3275 29.3435C43.2129 29.2427 43.1376 29.1032 43.1152 28.9504C42.7527 26.5717 41.6558 24.3731 39.9843 22.6743C38.3127 20.9756 36.1535 19.8654 33.8209 19.5052C33.655 19.4805 33.5055 19.3896 33.4053 19.2523C33.3051 19.1151 33.2624 18.9429 33.2867 18.7736C33.2978 18.6894 33.3253 18.6083 33.3675 18.535C33.4098 18.4618 33.466 18.3979 33.5328 18.3471C33.5995 18.2963 33.6756 18.2597 33.7565 18.2393C33.8373 18.2189 33.9214 18.2152 34.0036 18.2285C36.6044 18.6302 39.0116 19.8681 40.8754 21.762C42.7391 23.656 43.9621 26.1074 44.3664 28.7595C44.3787 28.8433 44.3747 28.9287 44.3546 29.0109C44.3345 29.0931 44.2988 29.1705 44.2494 29.2386C44.2 29.3067 44.138 29.3643 44.0668 29.4079C43.9957 29.4516 43.9168 29.4805 43.8347 29.493C43.8032 29.4976 43.7716 29.5 43.7398 29.5001Z" fill="white"/>
<path d="M20.2574 29.5001C20.2258 29.5001 20.1942 29.4975 20.1629 29.4924C19.9978 29.4669 19.8493 29.3754 19.75 29.2379C19.6508 29.1004 19.6089 28.9282 19.6337 28.7591C20.0393 26.1018 21.2638 23.6467 23.1287 21.7521C24.9935 19.8575 27.4011 18.6225 30.0001 18.2273C30.082 18.2152 30.1654 18.2198 30.2456 18.2407C30.3258 18.2617 30.4012 18.2986 30.4674 18.3493C30.5337 18.4001 30.5895 18.4637 30.6318 18.5365C30.674 18.6094 30.7018 18.69 30.7136 18.7739C30.7254 18.8577 30.7209 18.9431 30.7005 19.0252C30.68 19.1073 30.644 19.1844 30.5944 19.2523C30.5448 19.3201 30.4827 19.3772 30.4115 19.4205C30.3403 19.4637 30.2615 19.4922 30.1796 19.5043C27.8481 19.8584 25.6883 20.9661 24.0153 22.6656C22.3422 24.3651 21.2437 26.5675 20.8799 28.9513C20.8575 29.1039 20.7823 29.2431 20.6681 29.3438C20.5539 29.4445 20.4082 29.5 20.2574 29.5001Z" fill="white"/>
<path d="M43.7408 19.0884H33.9126C33.7449 19.0884 33.584 19.0426 33.4653 18.9613C33.3467 18.8799 33.28 18.7696 33.28 18.6545C33.28 18.5395 33.3467 18.4291 33.4653 18.3478C33.584 18.2664 33.7449 18.2207 33.9126 18.2207H43.7408C43.9085 18.2207 44.0694 18.2664 44.1881 18.3478C44.3067 18.4291 44.3734 18.5395 44.3734 18.6545C44.3734 18.7696 44.3067 18.8799 44.1881 18.9613C44.0694 19.0426 43.9085 19.0884 43.7408 19.0884Z" fill="white"/>
<path d="M30.0869 19.0884H20.2599C20.0919 19.0884 19.9309 19.0426 19.8122 18.9613C19.6934 18.8799 19.6267 18.7696 19.6267 18.6545C19.6267 18.5395 19.6934 18.4291 19.8122 18.3478C19.9309 18.2664 20.0919 18.2207 20.2599 18.2207H30.0869C30.2548 18.2207 30.4159 18.2664 30.5346 18.3478C30.6533 18.4291 30.72 18.5395 30.72 18.6545C30.72 18.7696 30.6533 18.8799 30.5346 18.9613C30.4159 19.0426 30.2548 19.0884 30.0869 19.0884Z" fill="white"/>
<path d="M45.6528 20.8236C45.2308 20.8235 44.8184 20.6961 44.4677 20.4577C44.1169 20.2193 43.8435 19.8804 43.6822 19.484C43.5208 19.0876 43.4787 18.6515 43.5611 18.2307C43.6436 17.81 43.8468 17.4235 44.1453 17.1203C44.4437 16.817 44.8239 16.6105 45.2377 16.5269C45.6516 16.4433 46.0805 16.4864 46.4703 16.6507C46.8601 16.815 47.1932 17.0931 47.4275 17.4499C47.6618 17.8066 47.7868 18.2261 47.7867 18.6551C47.7862 19.2303 47.5612 19.7817 47.1611 20.1883C46.761 20.5949 46.2185 20.8234 45.6528 20.8236ZM45.6528 17.6716C45.4615 17.6717 45.2745 17.7295 45.1155 17.8376C44.9566 17.9458 44.8327 18.0994 44.7596 18.2791C44.6864 18.4588 44.6674 18.6566 44.7047 18.8473C44.7421 19.038 44.8343 19.2132 44.9696 19.3507C45.1049 19.4882 45.2773 19.5818 45.4649 19.6197C45.6525 19.6576 45.8469 19.6381 46.0236 19.5636C46.2004 19.4892 46.3514 19.3631 46.4576 19.2014C46.5639 19.0397 46.6206 18.8496 46.6206 18.6551C46.6205 18.3942 46.5184 18.144 46.3369 17.9596C46.1554 17.7752 45.9094 17.6716 45.6528 17.6716Z" fill="white"/>
<path d="M43.946 33.8382C43.5241 33.8381 43.1117 33.6853 42.7609 33.3992C42.4102 33.1131 42.1368 32.7065 41.9755 32.2309C41.8141 31.7552 41.7719 31.2319 41.8543 30.727C41.9367 30.2221 42.1399 29.7584 42.4383 29.3945C42.7367 29.0305 43.1168 28.7827 43.5306 28.6823C43.9444 28.5819 44.3733 28.6335 44.7631 28.8305C45.1529 29.0276 45.486 29.3612 45.7204 29.7892C45.9548 30.2173 46.0799 30.7205 46.0799 31.2353C46.0794 31.9256 45.8544 32.5874 45.4543 33.0755C45.0542 33.5635 44.5117 33.8378 43.946 33.8382ZM43.946 30.0551C43.7547 30.0552 43.5678 30.1246 43.4088 30.2543C43.2498 30.3841 43.1259 30.5685 43.0528 30.7841C42.9796 30.9998 42.9606 31.2371 42.998 31.4659C43.0354 31.6948 43.1275 31.9051 43.2628 32.07C43.3981 32.235 43.5705 32.3473 43.7581 32.3928C43.9457 32.4383 44.1401 32.4149 44.3169 32.3255C44.4936 32.2362 44.6446 32.0849 44.7509 31.8909C44.8571 31.6968 44.9138 31.4687 44.9138 31.2353C44.9137 30.9222 44.8116 30.622 44.6301 30.4007C44.4487 30.1794 44.2026 30.0551 43.946 30.0551Z" fill="white"/>
<path d="M20.0544 33.8382C19.6324 33.8385 19.2199 33.6861 18.8689 33.4002C18.5179 33.1144 18.2443 32.708 18.0826 32.2324C17.921 31.7568 17.8786 31.2333 17.9608 30.7283C18.043 30.2233 18.246 29.7594 18.5443 29.3952C18.8427 29.031 19.2228 28.783 19.6366 28.6824C20.0505 28.5819 20.4795 28.6334 20.8694 28.8303C21.2593 29.0273 21.5925 29.3609 21.827 29.789C22.0614 30.2171 22.1866 30.7204 22.1866 31.2353C22.186 31.9251 21.9612 32.5865 21.5615 33.0745C21.1618 33.5624 20.6198 33.8371 20.0544 33.8382ZM20.0544 30.0551C19.8631 30.0548 19.6759 30.1238 19.5167 30.2533C19.3575 30.3828 19.2333 30.567 19.16 30.7826C19.0866 30.9983 19.0673 31.2356 19.1044 31.4646C19.1416 31.6937 19.2337 31.9041 19.3689 32.0693C19.5041 32.2345 19.6765 32.347 19.8641 32.3927C20.0518 32.4383 20.2463 32.415 20.4231 32.3257C20.5999 32.2365 20.7511 32.0852 20.8574 31.8911C20.9638 31.697 21.0205 31.4687 21.0205 31.2353C21.0202 30.9226 20.9184 30.6229 20.7373 30.4017C20.5562 30.1805 20.3107 30.0558 20.0544 30.0551Z" fill="white"/>
<path d="M32.0028 20.8236C31.4618 20.8221 30.9415 20.6108 30.5463 20.2322C30.1512 19.8536 29.9106 19.3358 29.8729 18.7828C29.8678 18.7338 29.8659 18.6845 29.867 18.6352C29.8763 18.0618 30.1051 17.515 30.5041 17.1129C30.9032 16.7107 31.4404 16.4854 32.0002 16.4854C32.5599 16.4854 33.0972 16.7107 33.4962 17.1129C33.8952 17.515 34.124 18.0618 34.1333 18.6352C34.1339 18.6975 34.131 18.7598 34.1245 18.8217C34.0811 19.3675 33.8387 19.8766 33.4455 20.2476C33.0524 20.6185 32.5373 20.8242 32.0028 20.8236ZM32.0028 17.6471C31.7465 17.6466 31.5004 17.7504 31.3187 17.9357C31.137 18.121 31.0346 18.3726 31.0338 18.6352C31.0338 18.6466 31.0338 18.6908 31.0373 18.7021C31.0537 18.9519 31.1619 19.186 31.3401 19.3572C31.5184 19.5284 31.7534 19.6239 31.9977 19.6245C32.242 19.6252 32.4774 19.5308 32.6565 19.3605C32.8355 19.1902 32.9449 18.9566 32.9624 18.7069L32.9659 18.6352C32.9658 18.3734 32.8643 18.1223 32.6837 17.9371C32.5032 17.7519 32.2583 17.6476 32.0028 17.6471Z" fill="white"/>
<path d="M18.3467 20.8236C17.9248 20.8236 17.5123 20.6964 17.1614 20.458C16.8106 20.2196 16.5372 19.8808 16.3757 19.4844C16.2143 19.088 16.1721 18.6519 16.2544 18.2311C16.3368 17.8103 16.54 17.4238 16.8384 17.1205C17.1368 16.8171 17.517 16.6106 17.9309 16.527C18.3447 16.4433 18.7737 16.4864 19.1635 16.6506C19.5533 16.8149 19.8865 17.093 20.1208 17.4498C20.3551 17.8066 20.4802 18.226 20.48 18.6551C20.4794 19.2301 20.2544 19.7814 19.8545 20.188C19.4545 20.5945 18.9123 20.8231 18.3467 20.8236ZM18.3467 17.6716C18.1554 17.6716 17.9684 17.7293 17.8093 17.8373C17.6503 17.9454 17.5263 18.099 17.4531 18.2787C17.3799 18.4584 17.3607 18.6562 17.398 18.8469C17.4354 19.0377 17.5275 19.2129 17.6628 19.3505C17.798 19.488 17.9704 19.5817 18.158 19.6196C18.3456 19.6576 18.5401 19.6381 18.7169 19.5637C18.8936 19.4892 19.0447 19.3632 19.151 19.2015C19.2572 19.0397 19.314 18.8496 19.314 18.6551C19.3138 18.3943 19.2119 18.1442 19.0305 17.9598C18.8491 17.7754 18.6032 17.6717 18.3467 17.6716Z" fill="white"/>
<path d="M45.0081 26.0294C44.8832 26.0296 44.761 25.9916 44.6569 25.9202C44.5528 25.8488 44.4714 25.7472 44.423 25.6281C44.3745 25.5089 44.3611 25.3776 44.3845 25.2506C44.4079 25.1237 44.467 25.0067 44.5544 24.9143L48.2292 21.0203C48.2883 20.9578 48.3589 20.9082 48.4368 20.8744C48.5147 20.8407 48.5984 20.8233 48.6828 20.8235H54.833C55.0011 20.8235 55.1622 20.8926 55.2811 21.0156C55.3999 21.1386 55.4666 21.3054 55.4666 21.4794C55.4666 21.6533 55.3999 21.8202 55.2811 21.9432C55.1622 22.0662 55.0011 22.1353 54.833 22.1353H48.9477L45.463 25.8306C45.4039 25.8936 45.3331 25.9436 45.255 25.9778C45.1768 26.0119 45.0929 26.0294 45.0081 26.0294Z" fill="white"/>
<path d="M63.3536 26.0295H55.2596C55.0882 26.0295 54.9238 25.9602 54.8026 25.837C54.6814 25.7137 54.6133 25.5466 54.6133 25.3723V17.1425C54.6133 16.9682 54.6814 16.8011 54.8026 16.6778C54.9238 16.5546 55.0882 16.4854 55.2596 16.4854H63.3536C63.525 16.4854 63.6894 16.5546 63.8106 16.6778C63.9319 16.8011 63.9999 16.9682 63.9999 17.1425V25.3723C63.9999 25.5466 63.9319 25.7137 63.8106 25.837C63.6894 25.9602 63.525 26.0295 63.3536 26.0295ZM55.9059 24.7151H62.7073V17.7997H55.9059V24.7151Z" fill="white"/>
<path d="M61.6525 20.8234H56.961C56.791 20.8234 56.628 20.732 56.5078 20.5693C56.3876 20.4066 56.3201 20.1859 56.3201 19.9558C56.3201 19.7257 56.3876 19.505 56.5078 19.3423C56.628 19.1795 56.791 19.0881 56.961 19.0881H61.6525C61.8225 19.0881 61.9855 19.1795 62.1057 19.3423C62.2259 19.505 62.2934 19.7257 62.2934 19.9558C62.2934 20.1859 62.2259 20.4066 62.1057 20.5693C61.9855 20.732 61.8225 20.8234 61.6525 20.8234Z" fill="white"/>
<path d="M61.6525 23.4265H56.961C56.791 23.4265 56.628 23.3808 56.5078 23.2994C56.3876 23.2181 56.3201 23.1077 56.3201 22.9927C56.3201 22.8776 56.3876 22.7673 56.5078 22.6859C56.628 22.6045 56.791 22.5588 56.961 22.5588H61.6525C61.8225 22.5588 61.9855 22.6045 62.1057 22.6859C62.2259 22.7673 62.2934 22.8776 62.2934 22.9927C62.2934 23.1077 62.2259 23.2181 62.1057 23.2994C61.9855 23.3808 61.8225 23.4265 61.6525 23.4265Z" fill="white"/>
<path d="M18.9907 44.2494C18.9063 44.2495 18.8228 44.2321 18.745 44.1983C18.6672 44.1645 18.5967 44.115 18.5377 44.0526L15.0528 40.3562H9.16707C8.99902 40.3562 8.83786 40.287 8.71903 40.164C8.6002 40.041 8.53345 39.8742 8.53345 39.7002C8.53345 39.5262 8.6002 39.3593 8.71903 39.2363C8.83786 39.1133 8.99902 39.0442 9.16707 39.0442H15.317C15.4015 39.044 15.4851 39.0614 15.563 39.0951C15.6409 39.1289 15.7115 39.1785 15.7707 39.241L19.4457 43.1349C19.5331 43.2272 19.5922 43.3442 19.6156 43.4712C19.639 43.5982 19.6256 43.7296 19.5771 43.8487C19.5286 43.9679 19.4472 44.0695 19.3431 44.1409C19.239 44.2123 19.1169 44.2503 18.992 44.2501L18.9907 44.2494Z" fill="white"/>
<path d="M8.74034 44.2499H0.646331C0.474913 44.2499 0.310517 44.1807 0.189306 44.0575C0.0680955 43.9343 0 43.7672 0 43.593V35.3628C0 35.1885 0.0680955 35.0214 0.189306 34.8982C0.310517 34.775 0.474913 34.7058 0.646331 34.7058H8.74034C8.91175 34.7058 9.07615 34.775 9.19736 34.8982C9.31857 35.0214 9.38667 35.1885 9.38667 35.3628V43.593C9.38667 43.7672 9.31857 43.9343 9.19736 44.0575C9.07615 44.1807 8.91175 44.2499 8.74034 44.2499ZM1.29266 42.936H8.094V36.0197H1.29266V42.936Z" fill="white"/>
<path d="M7.03921 39.0441H2.3477C2.17772 39.0441 2.0147 38.9527 1.89451 38.79C1.77431 38.6273 1.70679 38.4066 1.70679 38.1765C1.70679 37.9464 1.77431 37.7257 1.89451 37.563C2.0147 37.4002 2.17772 37.3088 2.3477 37.3088H7.03921C7.20919 37.3088 7.37221 37.4002 7.4924 37.563C7.6126 37.7257 7.68012 37.9464 7.68012 38.1765C7.68012 38.4066 7.6126 38.6273 7.4924 38.79C7.37221 38.9527 7.20919 39.0441 7.03921 39.0441Z" fill="white"/>
<path d="M7.03921 40.7795H2.3477C2.17772 40.7795 2.0147 40.7338 1.89451 40.6524C1.77431 40.5711 1.70679 40.4607 1.70679 40.3457C1.70679 40.2306 1.77431 40.1203 1.89451 40.0389C2.0147 39.9576 2.17772 39.9119 2.3477 39.9119H7.03921C7.20919 39.9119 7.37221 39.9576 7.4924 40.0389C7.6126 40.1203 7.68012 40.2306 7.68012 40.3457C7.68012 40.4607 7.6126 40.5711 7.4924 40.6524C7.37221 40.7338 7.20919 40.7795 7.03921 40.7795Z" fill="white"/>
</svg>
