<svg width="55" height="48" viewBox="0 0 55 48" fill="none" xmlns="http://www.w3.org/2000/svg">
<path d="M30.0599 30.2971C27.7317 30.2971 25.6203 29.4788 24.0925 28.156C22.5617 26.8293 21.6166 25.0019 21.6166 22.9868C21.6166 20.9691 22.5617 19.1398 24.0896 17.8169C25.6174 16.4941 27.7281 15.6758 30.0599 15.6758C32.3903 15.6758 34.5031 16.4941 36.031 17.8169C37.5589 19.1398 38.504 20.9691 38.504 22.9868C38.504 25.0057 37.5589 26.8331 36.031 28.156C34.5031 29.4788 32.3903 30.2971 30.0599 30.2971ZM40.0581 37.5318C41.4208 36.5863 43.4398 36.4313 44.8003 36.774C45.2463 36.8861 45.6377 37.0556 45.931 37.2691C46.2809 37.5236 46.5021 37.8436 46.5414 38.2172C46.5865 38.6411 46.3886 39.1022 45.8611 39.5684C46.5632 40.335 46.3013 41.2793 45.0732 42.3974C43.877 43.4878 41.6274 44.8006 38.3287 46.3326C38.2654 46.3678 38.1941 46.393 38.1155 46.4063C34.3795 47.0431 31.3332 47.4897 28.9817 47.7436C26.5858 48.0031 24.8775 48.0655 23.8604 47.9313C23.7956 47.9231 23.7352 47.9061 23.6792 47.8822C17.9227 45.9408 14.7004 44.5316 12.565 43.598C10.2077 42.5675 9.23421 42.1423 7.60447 42.2342C7.49607 42.2405 7.39275 42.221 7.30181 42.1826L7.29453 42.1801C7.10318 42.0988 6.9664 41.9331 6.95258 41.7366L6.95185 41.6824L6.95258 41.6686C6.93948 39.9923 6.93875 38.3816 6.95039 36.8402C6.96276 35.2962 6.98677 33.8222 7.02388 32.4225C7.0086 32.1919 7.16939 31.9714 7.43349 31.8908C10.928 30.8212 14.2922 30.4048 17.5233 30.6429C20.7166 30.8785 23.776 31.7522 26.6979 33.2609C29.6896 33.38 32.0905 33.6307 33.8949 34.0093C35.3209 34.3085 36.397 34.6959 37.1195 35.1671C37.9489 35.7075 38.3439 36.3595 38.3061 37.1205L38.3054 37.1293C38.2974 37.2786 38.2712 37.4323 38.2283 37.5847L38.2152 37.6232L38.2108 37.637C37.4192 40.0679 35.6883 39.9659 29.5856 39.6037C28.6652 39.5489 27.6386 39.4878 26.5072 39.4285C28.2468 40.1819 30.3182 40.5586 32.434 40.4509C35.0634 40.318 37.7597 39.4336 39.9751 37.5929L39.986 37.5835L39.9977 37.574L40.0093 37.5652L40.021 37.5564L40.0333 37.5476L40.0457 37.5394L40.0581 37.5318ZM44.6068 39.106C45.1328 38.7646 45.3387 38.4994 45.3191 38.3129C45.3111 38.2373 45.2463 38.1573 45.1423 38.0817C44.9822 37.9652 44.7443 37.8663 44.4584 37.7945C43.4049 37.528 41.8522 37.6427 40.8198 38.364C38.3767 40.3911 35.4046 41.3656 32.5067 41.513C29.2531 41.6786 26.0831 40.7999 23.8524 39.1999C23.7913 39.1558 23.7425 39.1041 23.7061 39.0468C23.6901 39.021 23.6748 38.9914 23.6639 38.9643L23.6501 38.9233L23.6472 38.9151L23.6385 38.878L23.6363 38.8654L23.6356 38.8591L23.6341 38.8522L23.6312 38.8188L23.6305 38.8055V38.7785L23.6319 38.7507L23.6327 38.7375L23.6363 38.7123L23.6457 38.6714L23.6479 38.6613L23.6625 38.6203L23.6654 38.6115L23.6705 38.5996C23.6879 38.5599 23.7134 38.5189 23.7425 38.483L23.7709 38.4503C23.8218 38.3973 23.8815 38.3551 23.9477 38.3236C23.9775 38.3098 24.0117 38.2966 24.043 38.2871L24.0903 38.2751L24.0997 38.2726L24.1427 38.2651L24.1572 38.2632L24.1645 38.2625L24.1725 38.2613L24.2111 38.2588L24.2263 38.2581H24.2576L24.2904 38.2594L24.3049 38.26L24.3195 38.2613C26.4498 38.3514 28.1966 38.454 29.667 38.5416C34.9906 38.8578 36.5061 38.9466 37.0314 37.3485L37.0351 37.3353L37.0372 37.3271C37.0605 37.2414 37.0751 37.1583 37.0794 37.0808C37.0991 36.6871 36.8655 36.3343 36.381 36.0175C35.7924 35.6326 34.8655 35.3069 33.6068 35.0423C31.8534 34.6738 29.4888 34.4319 26.5152 34.3179L26.4549 34.3154L26.4396 34.3141L26.425 34.3123L26.4097 34.3104L26.3806 34.3053L26.3632 34.3015L26.3515 34.2997L26.3079 34.2877L26.2366 34.2612L26.2228 34.2549L26.1951 34.2417C23.3969 32.7765 20.4721 31.9299 17.4229 31.705C14.4865 31.4889 11.4249 31.8454 8.24182 32.7752C8.20908 34.0792 8.18797 35.4354 8.17706 36.8439C8.1676 38.2266 8.16688 39.6654 8.17561 41.1571C9.75369 41.1779 10.8465 41.6547 13.1179 42.6481C15.2337 43.5728 18.4248 44.9681 24.1019 46.8844C25.0179 46.994 26.596 46.9278 28.8318 46.6853C31.144 46.4352 34.1328 45.9981 37.7939 45.3751C40.9486 43.9086 43.0796 42.6702 44.1826 41.6642C45.0128 40.9076 45.151 40.3476 44.5973 39.9867L44.585 39.9791L44.5726 39.9709L44.561 39.9627L44.5493 39.9545L44.5377 39.9457L44.526 39.9369L44.5151 39.9274L44.5042 39.918L44.494 39.9085L44.4838 39.8985L44.4736 39.8878L44.4635 39.877L44.454 39.8663L44.4445 39.855L44.4358 39.8443L44.4278 39.8336L44.4198 39.8222L44.4125 39.8115L44.4053 39.8002L44.3987 39.7889L44.3922 39.7769L44.3856 39.7656L44.3798 39.7536L44.3747 39.7416L44.3696 39.7296L44.3645 39.7177L44.3601 39.7051L44.3558 39.6931L44.3521 39.6805L44.3485 39.6685L44.3456 39.6559L44.3427 39.6433L44.342 39.637L44.3405 39.6307L44.3398 39.6244L44.3383 39.6181L44.3376 39.6118L44.3369 39.6055L44.3361 39.5993L44.3354 39.593L44.3347 39.586L44.334 39.5797L44.3332 39.5671V39.5608V39.5476L44.334 39.535V39.5224L44.3347 39.5161L44.3354 39.5098V39.5029L44.3361 39.4966L44.3369 39.4903L44.3383 39.484L44.339 39.4777L44.3398 39.4714L44.3412 39.4651L44.3427 39.4588L44.3434 39.4525L44.3449 39.4462L44.3463 39.4392L44.35 39.4267L44.3536 39.4141L44.3572 39.4015L44.3616 39.3895L44.366 39.3769L44.3711 39.3643L44.3769 39.3523L44.3827 39.3403L44.3885 39.3278L44.3951 39.3158L44.4023 39.3038L44.4096 39.2925L44.4176 39.2805L44.4256 39.2692L44.4336 39.2578L44.4424 39.2465L44.4511 39.2358L44.4605 39.2251L44.47 39.215L44.4795 39.2049L44.4897 39.1948L44.4998 39.1848L44.5108 39.1753L44.5217 39.1659L44.5326 39.157L44.5442 39.1482L44.5566 39.1394L44.569 39.1306L44.5813 39.1224L44.5944 39.1142L44.6068 39.106ZM0 30.4287C0 30.2631 0.0873074 30.115 0.224816 30.0174C0.26265 29.9903 0.304121 29.967 0.34923 29.9481C0.428534 29.9147 0.521661 29.8952 0.616244 29.8952C1.31252 29.8536 2.07064 29.8316 2.88405 29.8316C3.67855 29.8316 4.57418 29.8542 5.56585 29.8958L5.59058 29.8952C5.93035 29.8952 6.20683 30.1346 6.20683 30.4287V43.6346C6.20683 43.9288 5.93035 44.1681 5.59058 44.1681L5.56585 44.1675C4.57418 44.2097 3.67928 44.2324 2.88405 44.2324C2.07064 44.2324 1.31325 44.2103 0.616972 44.1681C0.522389 44.1681 0.430716 44.1486 0.350685 44.1152C0.305576 44.0963 0.263377 44.073 0.225544 44.0459C0.0887626 43.9483 0 43.8003 0 43.6346V30.4287ZM1.23249 30.9302V43.1332C1.73887 43.1546 2.28964 43.1653 2.88405 43.1653C3.55195 43.1653 4.24969 43.1521 4.97434 43.1269V30.9365C4.24969 30.9113 3.55268 30.8987 2.88405 30.8987C2.28891 30.8987 1.73814 30.9094 1.23249 30.9302ZM39.5684 32.0703C39.7161 32.3847 39.8442 32.7229 39.9497 33.0826C40.1017 33.5985 40.216 34.1756 40.2916 34.8086C40.3047 34.922 40.2749 35.031 40.2152 35.123C40.1883 35.1639 40.1548 35.203 40.117 35.2364C40.0202 35.3195 39.8886 35.3787 39.743 35.392C39.6121 35.4033 39.4862 35.3775 39.38 35.3258C39.3327 35.3025 39.2876 35.2735 39.249 35.2408L39.2185 35.2131L39.209 35.203C38.2552 34.3431 36.7382 33.6641 34.6603 33.1677C32.5009 32.6511 29.7514 32.3368 26.4178 32.2266L26.3887 32.2247L26.3741 32.2234L26.3588 32.2221L26.3443 32.2203L26.2999 32.2127L26.2853 32.2095L26.2708 32.2064L26.2562 32.2026L26.2417 32.1982L26.2271 32.1938L26.1842 32.1787L26.1704 32.173L26.1566 32.1667L26.1427 32.1604L26.1289 32.1535L26.1158 32.1472L26.1034 32.1403C24.2278 31.1872 22.3019 30.522 20.3302 30.1446L20.3091 30.1409C18.3265 29.7629 16.2952 29.6772 14.2187 29.882C14.1773 29.8864 14.1372 29.8864 14.0972 29.8832L14.0827 29.882L14.0681 29.8801L14.0536 29.8782L14.0383 29.8763L14.0092 29.8713L13.9946 29.8681L13.9801 29.8643L13.9233 29.8479L13.9095 29.8429L13.8957 29.8379L13.8811 29.8322L13.868 29.8259L13.8542 29.8196L13.8404 29.8133L13.8273 29.8064L13.8142 29.7994L13.7902 29.785L13.7778 29.7774L13.7662 29.7692L13.7553 29.7616L13.7436 29.7528L13.7327 29.7446L13.7218 29.7358L13.7167 29.7308L13.7058 29.7213L13.6949 29.7119L13.6847 29.7018L13.6752 29.6917L13.6658 29.6816L13.6563 29.6709L13.6476 29.6602L13.6389 29.6495L13.6309 29.6388L13.6229 29.6275L13.6149 29.6168L13.6076 29.6054L13.5945 29.5821L13.5879 29.5708L13.5821 29.5588C13.5668 29.5273 13.5552 29.4952 13.5472 29.4612L13.545 29.4536L13.5421 29.436L13.5399 29.4272L13.5377 29.4133C13.5326 29.3774 13.5326 29.3427 13.5363 29.3081L13.5377 29.2955L13.5399 29.2829L13.5421 29.2703L13.5443 29.2571L13.5501 29.2319L13.5537 29.2193L13.5581 29.2067L13.577 29.1575L13.5828 29.1456L13.5887 29.1336L13.5952 29.121L13.6025 29.1097L13.6098 29.0977L13.617 29.0857L13.625 29.0744L13.633 29.0631L13.6498 29.0423L13.6585 29.0316L13.6672 29.0215L13.676 29.012C14.0041 28.6429 14.4435 28.2473 14.9914 27.8284C15.4505 27.4775 15.986 27.1084 16.5957 26.7241C16.5462 26.5421 16.4989 26.3493 16.4538 26.1459C16.4072 25.9348 16.3621 25.7112 16.3192 25.4769C15.8587 25.4391 15.4098 25.3874 14.9732 25.3232C14.3933 25.2381 13.8346 25.1298 13.3013 24.9994L13.294 24.9975L13.2787 24.9943C13.2394 24.9861 13.198 24.9735 13.1616 24.9591L13.1507 24.9553L13.0939 24.9276L13.0859 24.9238C13.0335 24.8942 12.9826 24.8558 12.9426 24.8135L12.9382 24.8085C12.8531 24.7172 12.8014 24.6006 12.8014 24.4746V21.4976C12.8014 21.371 12.8531 21.2557 12.9382 21.1637C12.9782 21.1222 13.0299 21.0812 13.0816 21.0516L13.0939 21.0447L13.1478 21.0189L13.1616 21.0132C13.198 20.9987 13.2358 20.9874 13.2751 20.9792L13.294 20.9748L13.3013 20.9729C13.8353 20.8418 14.3933 20.7341 14.9732 20.6491C15.3894 20.588 15.8172 20.5382 16.2552 20.5011C16.2785 20.2333 16.3287 19.9725 16.4065 19.7206C16.4851 19.4661 16.5913 19.2191 16.7245 18.9791C16.3701 18.7505 16.0311 18.5143 15.7059 18.2711C15.2577 17.9353 14.8393 17.5889 14.4559 17.233L14.445 17.2235L14.4348 17.2141L14.4246 17.2046L14.4144 17.1946L14.405 17.1845L14.3955 17.1744L14.3701 17.1429L14.3621 17.1316L14.3541 17.1208L14.3468 17.1095L14.3395 17.0982L14.333 17.0868L14.33 17.0805L14.3235 17.0692L14.3177 17.0572L14.3119 17.0453L14.3068 17.0327L14.3017 17.0207L14.2973 17.0081L14.2929 16.9961L14.2857 16.9709L14.2828 16.9583L14.2798 16.9457L14.2769 16.9331L14.2748 16.9205L14.2733 16.9079L14.2718 16.8953L14.2697 16.8651V16.8569L14.2718 16.8059L14.2733 16.7933L14.2755 16.775L14.2769 16.7681L14.2777 16.7618L14.2835 16.7366L14.2857 16.7303L14.3017 16.6805L14.3039 16.6736L14.3293 16.6213L14.3344 16.6119L14.3417 16.5999L14.349 16.5879L14.357 16.576L16.1104 14.0619L16.1177 14.0499L16.1409 14.0159C16.2777 13.8282 16.5447 13.7293 16.8067 13.7847L16.8219 13.7879C17.3698 13.9164 17.9293 14.0783 18.4953 14.2717C18.8919 14.4065 19.2942 14.5583 19.7016 14.7277C19.8464 14.564 20.0058 14.4084 20.1782 14.2597C20.3594 14.1029 20.5572 13.9536 20.7697 13.8125C20.5769 13.466 20.4001 13.1176 20.2408 12.7687C20.0239 12.2931 19.8384 11.8162 19.6871 11.3419L19.6827 11.3293L19.6784 11.3167L19.6747 11.3041L19.6711 11.2915L19.6682 11.2789L19.6653 11.2657L19.6631 11.2531L19.6616 11.2405L19.6594 11.2272L19.6587 11.2146L19.658 11.202L19.6573 11.1888V11.1636L19.658 11.1504L19.6587 11.1378L19.6602 11.1252L19.6616 11.1126L19.6623 11.1063L19.6638 11.1L19.6645 11.0937L19.666 11.0874L19.6667 11.0811L19.6718 11.0622L19.6733 11.0559L19.6747 11.0496L19.6762 11.0433L19.6805 11.0307L19.6849 11.0187L19.6893 11.0061L19.6944 10.9942L19.6995 10.9822L19.7053 10.9708L19.7111 10.9589L19.7169 10.9475L19.7235 10.9356L19.7307 10.9249L19.7373 10.9135L19.7453 10.9022L19.7526 10.8915L19.7606 10.8808L19.7693 10.8707L19.7737 10.865L19.7824 10.8549L19.7868 10.8499L19.7919 10.8442L19.8013 10.8342L19.8108 10.8247L19.821 10.8146L19.8319 10.8052L19.8421 10.7964L19.8537 10.7869L19.8646 10.7781L19.8762 10.7699L19.8886 10.7611L19.901 10.7529L19.9235 10.7384L19.9395 10.7296L19.9526 10.7227L19.9657 10.7157L19.9788 10.7094L22.8462 9.20012C23.0782 9.0546 23.4042 9.06594 23.6232 9.2398C24.0415 9.5743 24.4519 9.94217 24.8513 10.3409C25.1387 10.6288 25.4225 10.9349 25.7018 11.2587C25.9427 11.1762 26.1871 11.1019 26.433 11.0376C26.6979 10.9683 26.9714 10.9072 27.2552 10.8549C27.2988 10.4512 27.3599 10.0562 27.4349 9.67068C27.5331 9.16925 27.6582 8.68547 27.8089 8.22373L27.811 8.21743L27.8147 8.2042C27.8241 8.17018 27.8387 8.13428 27.8554 8.10278L27.8598 8.09333L27.8918 8.0442L27.8962 8.03727C27.9304 7.99191 27.9747 7.94782 28.0235 7.91317C28.129 7.83947 28.2694 7.79097 28.4149 7.79097H31.8526C31.9989 7.79097 32.132 7.83569 32.2382 7.90939C32.2863 7.94404 32.3336 7.98876 32.3678 8.03349L32.3758 8.0442L32.4056 8.09081L32.4121 8.10278C32.4289 8.13428 32.442 8.16703 32.4514 8.20105L32.4565 8.21743L32.4587 8.22373C32.61 8.6861 32.7344 9.16925 32.8327 9.67068C32.9098 10.0631 32.9709 10.4663 33.0153 10.8808C33.3012 10.9469 33.5835 11.0168 33.8585 11.0893C34.0935 11.1516 34.3176 11.214 34.5301 11.277C34.8138 10.9463 35.1027 10.6338 35.3959 10.3409C35.7786 9.95855 36.1824 9.59634 36.6 9.26122L36.6102 9.2524L36.6327 9.23413L36.6436 9.22595L36.6553 9.21776L36.6676 9.20957L36.6793 9.20201L36.6916 9.19445L36.704 9.18752L36.7164 9.18059L36.7295 9.17366L36.7419 9.16736L36.7549 9.16169L36.7622 9.15854L36.7753 9.15287L36.7891 9.1472L36.803 9.14217L36.8168 9.13776L36.8313 9.13272L36.8452 9.12894L36.859 9.12453L36.8735 9.12138L36.8881 9.1176L36.9019 9.11508L36.9165 9.11193L36.931 9.11004L36.9456 9.10752L36.9601 9.10563L36.9754 9.10437L36.9899 9.10311L37.0045 9.10248L37.0191 9.10185L37.0336 9.10122H37.0489L37.0634 9.10185L37.078 9.10248L37.1071 9.10437L37.1216 9.10626L37.1507 9.11004L37.1653 9.11256L37.1864 9.11634L37.1944 9.11823L37.2082 9.12201L37.2155 9.12327L37.2228 9.12579L37.2366 9.12957L37.2446 9.13146L37.2642 9.13838L37.273 9.1409L37.3013 9.15161L37.3152 9.15791L37.329 9.16421L37.3428 9.17051L37.3566 9.17744L37.3712 9.18563L40.2683 10.7101L40.2814 10.7164L40.2945 10.7227L40.3076 10.7296L40.32 10.7371L40.3447 10.7523L40.3564 10.7598L40.368 10.768L40.3789 10.7762L40.3906 10.785L40.4015 10.7938L40.4117 10.8027L40.4219 10.8121L40.432 10.8209L40.4415 10.831L40.4517 10.8405L40.4604 10.8505L40.4691 10.8606L40.4735 10.8657L40.4779 10.8713L40.4822 10.8764L40.4866 10.8814L40.4902 10.8871L40.4946 10.8921L40.4982 10.8978L40.5063 10.9091L40.5135 10.9198L40.5201 10.9312L40.5274 10.9425L40.5332 10.9545L40.5397 10.9658L40.5448 10.9778L40.5506 10.9897L40.5557 11.0017L40.5601 11.0137L40.5645 11.0257L40.5688 11.0383L40.5725 11.0502L40.5739 11.0565L40.5754 11.0628L40.5805 11.0817L40.5812 11.088L40.5826 11.0943L40.5834 11.1006L40.5848 11.1069L40.5856 11.1132L40.587 11.1195V11.1258L40.5885 11.1327L40.5892 11.146L40.5899 11.1586V11.1894V11.1983L40.5892 11.2115L40.5877 11.2247L40.5863 11.2379L40.5848 11.2512L40.5819 11.2644L40.5797 11.2776L40.5761 11.2909L40.5725 11.3041L40.5688 11.3173L40.5645 11.3299L40.5601 11.3425C40.3018 12.1539 39.9431 12.974 39.4855 13.798C39.7183 13.9391 39.9351 14.0865 40.1352 14.2389L40.1672 14.2647C40.3658 14.4178 40.5514 14.5785 40.7238 14.7454C41.1458 14.569 41.5619 14.4109 41.9716 14.271C42.5383 14.0783 43.0978 13.9164 43.645 13.7879L43.6602 13.7854C43.9214 13.7299 44.187 13.8282 44.3252 14.0159L44.3492 14.0499L44.3565 14.0619L46.1107 16.576L46.1172 16.5867L46.1245 16.598L46.131 16.6093L46.1383 16.6213L46.1638 16.6736L46.166 16.6805L46.182 16.7303L46.1841 16.7366L46.19 16.7618L46.1907 16.7681L46.1921 16.775L46.1943 16.7933L46.1958 16.8008L46.198 16.8569V16.8651L46.1965 16.8903L46.1951 16.9035L46.1936 16.9161L46.1914 16.9287L46.1892 16.9413L46.1863 16.9539L46.1834 16.9665L46.1769 16.9911L46.1725 17.0037L46.1681 17.0157L46.163 17.0276L46.158 17.0396L46.1529 17.0516L46.147 17.0635L46.1412 17.0755L46.1347 17.0868L46.131 17.0925L46.1238 17.1045L46.1165 17.1158L46.1085 17.1271L46.1005 17.1385L46.0743 17.1712L46.0641 17.182L46.0546 17.192L46.0444 17.2027L46.0335 17.2128L46.0226 17.2235L46.0154 17.2298C45.6319 17.5857 45.2099 17.9353 44.7618 18.2705C44.4111 18.5332 44.0429 18.7876 43.6588 19.0333C43.741 19.2891 43.8108 19.5473 43.8669 19.8088C43.9156 20.0381 43.9549 20.268 43.9825 20.4985C44.43 20.5363 44.8673 20.5867 45.2929 20.6491C45.8727 20.7341 46.4315 20.8425 46.9648 20.9729L46.9721 20.9748L46.9874 20.9779C47.0267 20.9861 47.0681 20.9987 47.1045 21.0132L47.1154 21.017L47.1722 21.0447L47.1802 21.0485C47.2326 21.0781 47.2835 21.1165 47.3235 21.1587C47.4086 21.25 47.4646 21.3716 47.4646 21.4976V24.4746C47.4646 24.6013 47.413 24.7165 47.3279 24.8085L47.3235 24.8135C47.2835 24.8551 47.2362 24.891 47.1845 24.9206L47.1722 24.9276L47.1183 24.9534L47.1045 24.9591C47.0681 24.9735 47.0303 24.9849 46.991 24.9931L46.9721 24.9975L46.9648 24.9994C46.4308 25.1304 45.8727 25.2381 45.2929 25.3232C44.876 25.3843 44.4482 25.434 44.0095 25.4712C43.9905 25.7477 43.9527 26.0022 43.8981 26.234C43.8494 26.4394 43.7861 26.6296 43.7083 26.8041C44.0706 27.0473 44.4147 27.2961 44.7385 27.5487C45.183 27.8952 45.5948 28.2523 45.9695 28.6152L45.9761 28.6221L45.9862 28.6316L45.9964 28.6416L46.0059 28.6517L46.0154 28.6618L46.0241 28.6725L46.0328 28.6826L46.0415 28.6933L46.0495 28.7046L46.0568 28.7153L46.0641 28.7267L46.0714 28.738L46.0779 28.7493L46.0881 28.7664L46.091 28.7727L46.0968 28.7846L46.1019 28.7966L46.1048 28.8029L46.1099 28.8149L46.1143 28.8275L46.1187 28.8394L46.1238 28.8577L46.1259 28.8646L46.1296 28.8772L46.1325 28.8898L46.1347 28.9024L46.1368 28.915L46.139 28.9282L46.1405 28.9408L46.1412 28.9534L46.1419 28.966L46.1427 28.9793V28.9919L46.1419 29.0045L46.1412 29.0177L46.1405 29.0303L46.139 29.0429L46.1368 29.0555L46.1354 29.0681L46.1339 29.0744L46.1325 29.0807L46.131 29.087L46.1296 29.0933L46.1281 29.0996L46.1267 29.1059L46.1252 29.1122L46.123 29.1185L46.1216 29.1248L46.1194 29.1311L46.1172 29.1374L46.1128 29.15L46.1077 29.1626L46.1027 29.1752L46.0968 29.1878L46.091 29.1997L46.0845 29.2117L46.0779 29.2243L46.0706 29.2363L46.0626 29.2483L46.0466 29.2716L46.0379 29.2835L46.0292 29.2942L44.2052 31.7856L44.1972 31.7951C44.1411 31.8669 44.0677 31.9261 43.9855 31.9651C43.9418 31.9859 43.8909 32.0029 43.8428 32.0143L43.8341 32.0168L43.7555 32.0288L43.7468 32.03L43.7177 32.0319C43.6813 32.0332 43.6362 32.0319 43.5991 32.0275L43.5889 32.0256C43.5526 32.0206 43.5169 32.0136 43.482 32.0029L43.4674 31.9985C42.9247 31.8587 42.3841 31.6911 41.8493 31.4971L41.8195 31.4858C41.4383 31.3465 41.0541 31.1928 40.67 31.0247C40.475 31.259 40.28 31.4681 40.085 31.6495C39.9147 31.8083 39.7423 31.9488 39.5684 32.0703ZM38.8169 33.5601L38.7565 33.3447C38.6241 32.8943 38.4604 32.4955 38.2705 32.1522C38.1038 31.8984 38.2021 31.5714 38.4945 31.4253C38.7186 31.3125 38.95 31.145 39.1857 30.9251C39.4338 30.6946 39.6841 30.4092 39.9337 30.0735C39.989 29.9884 40.0675 29.9223 40.1585 29.8757L40.1701 29.8694L40.1832 29.8631L40.1963 29.8574L40.2094 29.8517L40.2232 29.8467C40.3033 29.8164 40.3935 29.8013 40.483 29.8026H40.4968L40.5121 29.8032L40.5863 29.8114C40.6299 29.8183 40.6743 29.8309 40.7165 29.8473L40.7602 29.865C41.2767 30.1062 41.7889 30.3204 42.2953 30.5043L42.3252 30.5144C42.694 30.6486 43.0585 30.7683 43.418 30.8709L44.7545 29.046C44.4889 28.8048 44.2103 28.5686 43.9163 28.3399C43.5023 28.018 43.0593 27.7049 42.5893 27.4044L42.5769 27.3969L42.5645 27.3887L42.5522 27.3805L42.5398 27.3723L42.5281 27.3635L42.5172 27.3547L42.5063 27.3452L42.4954 27.3358L42.4845 27.3263L42.4743 27.3169L42.4649 27.3068L42.4554 27.2967L42.4459 27.2867L42.4372 27.2759L42.4285 27.2652L42.4205 27.2545L42.4125 27.2438L42.4088 27.2381L42.4052 27.2325L42.3979 27.2211L42.3906 27.2098L42.3841 27.1985L42.3775 27.1871L42.3717 27.1752L42.3659 27.1632L42.3608 27.1518L42.3586 27.1455L42.3557 27.1392L42.3513 27.1273L42.3492 27.121L42.3448 27.109L42.3426 27.1027L42.3412 27.0964L42.3375 27.0844L42.3361 27.0781L42.3346 27.0718L42.3332 27.0655L42.3317 27.0592L42.3302 27.0529L42.3295 27.0466L42.3281 27.0403L42.3273 27.034L42.3259 27.0278L42.3244 27.0152V27.0089L42.323 27.0019L42.3222 26.9893V26.9572L42.3237 26.9251L42.3244 26.9188L42.3259 26.9062L42.3266 26.8999L42.331 26.874L42.3353 26.8552L42.3368 26.8482L42.3404 26.8356L42.3441 26.823L42.3484 26.8104L42.3528 26.7978L42.3579 26.7852L42.363 26.7726L42.3688 26.7607L42.3754 26.7481L42.3819 26.7361L42.3885 26.7241L42.3957 26.7122L42.4037 26.7002L42.4117 26.6882L42.4176 26.68L42.4226 26.6737C42.5398 26.5018 42.6322 26.2807 42.6948 26.0192C42.7624 25.7314 42.7973 25.3956 42.7966 25.0158C42.7748 24.7228 43.0309 24.4683 43.3692 24.4494C43.9644 24.4135 44.5391 24.355 45.0906 24.2737C45.4791 24.217 45.8604 24.1477 46.2322 24.0665V21.9058C45.8604 21.8245 45.4791 21.7552 45.0906 21.6985C44.5413 21.6179 43.9687 21.5587 43.3765 21.5228L43.3605 21.5215L43.3452 21.5203L43.3299 21.519L43.3219 21.5184L43.3146 21.5171L43.2703 21.5096L43.2615 21.5083C43.1851 21.4919 43.116 21.463 43.0542 21.4252L43.0454 21.4201L43.0222 21.4044L42.9785 21.3704L42.9458 21.3395L42.9385 21.3326L42.929 21.3225L42.9196 21.3124L42.9108 21.3023L42.9028 21.2916L42.8948 21.2815L42.8868 21.2702L42.8701 21.2444L42.865 21.2368L42.8577 21.2255L42.8519 21.2141L42.8454 21.2022L42.8395 21.1902L42.8344 21.1782L42.8294 21.1656L42.8192 21.136L42.8163 21.1285L42.8126 21.1159L42.809 21.1033L42.8061 21.09L42.8032 21.0774L42.8024 21.0711L42.801 21.0642L42.7995 21.051L42.7988 21.0441L42.7973 21.0308L42.7966 21.0245V21.017L42.7959 21.0107V21.0012L42.7952 20.993C42.7748 20.6623 42.7304 20.3303 42.6591 20.0003C42.5893 19.6733 42.4896 19.3395 42.3644 19.0037L42.3586 18.988L42.3543 18.9747L42.3499 18.9615L42.3463 18.9489L42.3426 18.9363L42.3397 18.9237L42.3375 18.9111L42.3332 18.8853L42.3317 18.8727L42.3302 18.8601L42.3295 18.8469L42.331 18.7832L42.3324 18.77L42.3339 18.7574L42.3383 18.7322L42.3412 18.7196L42.3441 18.707L42.3615 18.6522L42.3644 18.6459L42.3695 18.6339L42.3805 18.61L42.387 18.598L42.3935 18.5867L42.4001 18.5754L42.4146 18.5527L42.4226 18.5413L42.4307 18.5306L42.4387 18.5199L42.4474 18.5092L42.4568 18.4985L42.4663 18.4884L42.4758 18.4783L42.4859 18.4683L42.5063 18.4494L42.5289 18.4305L42.5405 18.4217L42.5522 18.4128L42.5762 18.3965L42.5885 18.3889L42.6009 18.3813L42.6133 18.3744L42.6191 18.3706C43.1007 18.0765 43.5467 17.7741 43.9585 17.4667C44.2583 17.2431 44.5442 17.0125 44.8141 16.7769L43.5242 14.9281C43.1553 15.0263 42.7864 15.1378 42.4197 15.2626C41.9024 15.4396 41.3837 15.6418 40.8708 15.8686L40.8562 15.8755L40.8424 15.8818C40.814 15.8944 40.7835 15.9045 40.7544 15.9133L40.7442 15.9164L40.6867 15.9297L40.6569 15.9341L40.6423 15.936L40.5979 15.9397L40.5172 15.9385L40.5026 15.9372H40.4953L40.4226 15.9265L40.4153 15.9246C40.3724 15.9158 40.3302 15.9019 40.2909 15.8856L40.2836 15.883C40.2567 15.8717 40.2312 15.8578 40.2065 15.8427C40.1796 15.8257 40.1497 15.8043 40.125 15.7829L40.0734 15.7319C39.8616 15.4925 39.6208 15.2676 39.3531 15.061L39.3218 15.0389C39.0409 14.8248 38.7361 14.6295 38.4101 14.4569C38.1119 14.3221 37.9911 13.9995 38.1453 13.74C38.6139 12.9526 38.9849 12.1784 39.257 11.4194L37.1224 10.2962C36.8524 10.5267 36.5862 10.7743 36.3242 11.0364C35.9634 11.3973 35.6149 11.7816 35.2824 12.1854L35.2744 12.1967C35.1223 12.4058 34.8153 12.5003 34.5381 12.4102C34.215 12.3044 33.8687 12.2024 33.502 12.106C33.1499 12.0134 32.7497 11.9183 32.3095 11.8225L32.2943 11.8187L32.2797 11.8156L32.2652 11.8124L32.2579 11.8105L32.2506 11.8087L32.2433 11.8068L32.2222 11.7998L32.2135 11.7973L32.1997 11.7923L32.1713 11.7816L32.1444 11.7696L32.1313 11.7633L32.1182 11.7564L32.1051 11.7494L32.0804 11.735L32.0673 11.7261L32.0564 11.7192L32.0447 11.711L32.0338 11.7028L32.0222 11.694L32.0112 11.6852L32.0011 11.6764L31.9909 11.6669L31.9807 11.6575L31.9712 11.648L31.9618 11.6379L31.9523 11.6279L31.9436 11.6178L31.9349 11.6077L31.9261 11.597L31.9181 11.5863L31.9108 11.5756L31.9028 11.5642L31.889 11.5416L31.8825 11.5302L31.8766 11.5189L31.8708 11.5069L31.865 11.495L31.8599 11.483L31.8548 11.471L31.8505 11.459L31.8461 11.4464L31.8425 11.4338L31.8388 11.4212L31.8352 11.4087L31.8323 11.3961L31.8301 11.3835L31.8279 11.3709L31.8272 11.3639L31.8257 11.3507L31.825 11.3444L31.8243 11.3368L31.8228 11.3186C31.7806 10.8096 31.7137 10.3182 31.6205 9.8458C31.5551 9.50941 31.475 9.17996 31.3812 8.85807H28.8864C28.7925 9.17996 28.7125 9.50941 28.647 9.8458C28.5553 10.317 28.4869 10.8096 28.4447 11.3198L28.444 11.3331L28.4433 11.3394L28.4426 11.3463L28.4418 11.3532L28.4404 11.3664L28.4382 11.3803L28.436 11.3935L28.4331 11.4068L28.4295 11.42L28.4258 11.4326L28.4222 11.4458L28.4178 11.4584L28.4127 11.471L28.4084 11.483L28.4025 11.4956L28.3967 11.5075L28.3909 11.5195L28.3851 11.5315L28.3778 11.5428L28.3713 11.5542L28.364 11.5655L28.356 11.5768L28.3487 11.5876L28.34 11.5983L28.332 11.609L28.3232 11.6197L28.3138 11.6298L28.305 11.6398L28.2956 11.6493L28.2854 11.6587L28.2752 11.6682L28.265 11.6776L28.2548 11.6865L28.2439 11.6953L28.2323 11.7035L28.2214 11.7116L28.2097 11.7198L28.1981 11.7274L28.1865 11.735L28.1741 11.7425L28.1617 11.7494L28.1493 11.7564L28.1239 11.769L28.1108 11.7753L28.097 11.7809L28.0839 11.7866L28.07 11.7916L28.0562 11.7967L28.0424 11.8011L28.0286 11.8055L28.014 11.8093L27.9995 11.8131L27.9849 11.8168L27.9704 11.82L27.9558 11.8225L27.9485 11.8238L27.9405 11.825L27.9333 11.8263L27.926 11.8276L27.9151 11.8288C27.5302 11.8855 27.1519 11.9636 26.7895 12.0581C26.4185 12.1551 26.07 12.2685 25.7484 12.3957L25.7193 12.4065L25.7106 12.409L25.6967 12.4134L25.6604 12.4235L25.6531 12.4247L25.624 12.431L25.616 12.4329L25.6007 12.4354C25.5614 12.4411 25.5163 12.4436 25.477 12.443H25.4668L25.4516 12.4424L25.4224 12.4398L25.389 12.4354L25.3781 12.4342L25.3206 12.4222L25.3068 12.4184L25.2384 12.3957L25.2246 12.3901L25.2115 12.3844L25.1729 12.3655L25.1482 12.3517L25.0892 12.3126L25.0463 12.2767L25.0412 12.2717L25.031 12.2616L25.0208 12.2509L25.0114 12.2408L24.9925 12.2187L24.9765 12.1992L24.9721 12.1935C24.6374 11.7866 24.2867 11.3998 23.9229 11.0364C23.6639 10.7781 23.3976 10.5312 23.1226 10.2968L20.9901 11.4187C21.1036 11.735 21.2346 12.055 21.3816 12.3769C21.5824 12.8153 21.8181 13.2651 22.0888 13.7205L22.0968 13.7325L22.1019 13.7406L22.1091 13.7526L22.1157 13.7652L22.1215 13.7778L22.1281 13.7904L22.1331 13.803L22.1382 13.8156L22.1433 13.8282L22.147 13.8408L22.1513 13.8534L22.155 13.8666L22.1579 13.8792L22.1608 13.8925L22.163 13.9051L22.1652 13.9177L22.1666 13.9309L22.1681 13.9441L22.1688 13.9567L22.1695 13.9699V13.9838V13.9951V14.0084L22.1681 14.021L22.1673 14.0342L22.1659 14.0468L22.1637 14.0594L22.1615 14.072L22.1586 14.0846L22.1557 14.0972L22.1528 14.1098L22.1492 14.1218L22.1448 14.1344L22.1404 14.1463L22.1361 14.1589L22.131 14.1709L22.1259 14.1829L22.1201 14.1942L22.1142 14.2062L22.1077 14.2175L22.1011 14.2295L22.0939 14.2402L22.0866 14.2515L22.0793 14.2629L22.0713 14.2736L22.0633 14.2843L22.0546 14.295L22.0458 14.3051L22.0364 14.3158L22.0269 14.3259L22.0175 14.3353L22.0073 14.3454L21.9971 14.3548L21.9869 14.3636L21.976 14.3731L21.9644 14.3819L21.9527 14.3907L21.9411 14.3989L21.9294 14.4071L21.9171 14.4153L21.904 14.4229L21.8916 14.4304L21.8785 14.4374L21.8647 14.4443C21.5562 14.6175 21.2819 14.809 21.044 15.0144C20.8053 15.2197 20.6002 15.4452 20.4307 15.6859L20.4219 15.6972L20.4045 15.7199L20.395 15.7306L20.3448 15.7804C20.3062 15.8144 20.2619 15.844 20.216 15.8673L20.2029 15.8736L20.1898 15.8799L20.1767 15.8856C20.128 15.907 20.0756 15.9215 20.0232 15.9303C19.9024 15.9504 19.7737 15.9404 19.6551 15.8944L19.6412 15.8887L19.6136 15.8767L19.602 15.8711C19.0868 15.6437 18.5674 15.4402 18.0472 15.2632C17.6797 15.1378 17.3123 15.0263 16.9427 14.9281L15.6535 16.7769C15.9234 17.0125 16.2093 17.2437 16.5091 17.4673C16.9289 17.781 17.3865 18.0884 17.8776 18.3883L17.8907 18.3965L17.9031 18.4046L17.9497 18.4399L17.9606 18.4494L17.9708 18.4588L17.981 18.4683L17.9911 18.4783L18.0006 18.4884L18.0101 18.4985L18.0188 18.5086L18.0362 18.53L18.0443 18.5407L18.0523 18.552L18.0595 18.5634L18.0668 18.5741L18.0734 18.5861L18.0799 18.5974L18.0857 18.6087L18.0915 18.6207L18.0974 18.6327L18.1025 18.6446L18.1068 18.6566L18.1156 18.6812L18.1192 18.6938L18.1228 18.7058L18.1257 18.7183L18.1286 18.7309L18.1308 18.7435L18.133 18.7561L18.1345 18.7687L18.1359 18.7813L18.1367 18.7946L18.1374 18.8072L18.1381 18.8198V18.833L18.1323 18.8966L18.1301 18.9098L18.1214 18.9476L18.1134 18.9735L18.109 18.9854L18.0814 19.0478L18.0748 19.0598L18.0675 19.0717L18.0603 19.0837L18.0523 19.095L18.0443 19.107L18.0355 19.1184L18.0268 19.1297C17.8318 19.4037 17.6885 19.6929 17.5953 19.9933C17.5022 20.297 17.4593 20.6144 17.468 20.9426L17.4687 20.9496L17.4695 20.9565C17.4731 21.0088 17.468 21.0598 17.4549 21.1083L17.4535 21.1159L17.4498 21.1285L17.4389 21.1587L17.4367 21.1656L17.4316 21.1782L17.4011 21.2368L17.3793 21.2702L17.3669 21.2859L17.3633 21.2916C17.2658 21.4163 17.1079 21.5026 16.9223 21.5203L16.9129 21.5215L16.8969 21.5228C16.3017 21.5587 15.727 21.6173 15.1755 21.6985C14.787 21.7552 14.4057 21.8245 14.0339 21.9058V24.0665C14.4057 24.1477 14.787 24.217 15.1755 24.2737C15.7219 24.3543 16.2916 24.4129 16.8809 24.4488L16.8962 24.4494L16.9114 24.4501L16.9267 24.4513L16.9413 24.4532L16.9565 24.4551L16.9711 24.4576L16.9864 24.4602L17.0009 24.4633L17.0155 24.4665L17.03 24.4696L17.0439 24.4734L17.0584 24.4778L17.0722 24.4822L17.0861 24.4866L17.0999 24.4917L17.113 24.4967L17.1268 24.5024L17.1399 24.508L17.153 24.5143L17.1654 24.5206L17.1785 24.5269L17.1908 24.5339L17.2032 24.5414L17.2148 24.5483L17.2272 24.5559L17.2388 24.5641L17.2556 24.5761L17.2614 24.5805L17.2723 24.5887L17.2832 24.5975L17.2934 24.6063L17.3036 24.6157L17.3138 24.6252L17.3371 24.6498L17.3422 24.6548L17.3516 24.6649L17.3603 24.6756L17.3683 24.6863L17.3764 24.697L17.3844 24.7077L17.3916 24.7191L17.3989 24.7304L17.4062 24.7424L17.4142 24.7581L17.4185 24.7657L17.4251 24.7783L17.4302 24.7902L17.4367 24.8066L17.4404 24.8154L17.4455 24.828L17.4535 24.8539L17.4571 24.8671L17.46 24.8803L17.4629 24.8935L17.4651 24.9074C17.524 25.2797 17.591 25.6268 17.6616 25.9455C17.7299 26.2561 17.8063 26.5446 17.8886 26.8073L17.8922 26.8199L17.8958 26.8325L17.8987 26.8451L17.9009 26.8577L17.9082 26.9087L17.9089 26.9219C17.9104 26.9522 17.9089 26.9818 17.9046 27.0114L17.9038 27.0189L17.9016 27.0315C17.8958 27.0611 17.8849 27.0952 17.874 27.1229L17.8711 27.1311L17.8602 27.155L17.8514 27.1707L17.8478 27.1783L17.8413 27.1896L17.8238 27.2161L17.8194 27.223L17.8114 27.2337L17.8034 27.2444L17.7954 27.2552L17.7867 27.2652L17.7816 27.2703L17.7772 27.2753L17.7721 27.2804L17.7627 27.2904L17.7583 27.2955L17.7525 27.3005L17.7321 27.3194L17.6863 27.3559L17.6485 27.3805L17.6354 27.3887L17.623 27.3963C16.91 27.8322 16.301 28.2448 15.8048 28.6246L15.6826 28.7191C17.3429 28.6675 18.9741 28.7941 20.574 29.099L20.598 29.104C22.6504 29.4977 24.6578 30.1875 26.6157 31.1702C29.9777 31.2886 32.7694 31.613 34.9877 32.1434C36.5316 32.5125 37.8085 32.985 38.8169 33.5601ZM6.95258 28.9887C7.06608 29.2646 6.90019 29.5695 6.58152 29.6678C6.26285 29.7661 5.91071 29.6224 5.79721 29.3465C5.31193 28.1749 4.93796 26.9572 4.68913 25.7087C4.44394 24.4803 4.31589 23.2217 4.31589 21.9417C4.31589 15.883 7.15266 10.397 11.7385 6.42654C16.3228 2.45672 22.6606 0 29.6583 0C36.656 0 42.9923 2.45609 47.5781 6.42654C52.1625 10.3964 55 15.883 55 21.9417C55 24.8753 54.3306 27.6816 53.1178 30.2479C51.8591 32.9113 50.0148 35.312 47.7258 37.3252C47.4887 37.5343 47.0987 37.5369 46.8571 37.3315C46.6156 37.1261 46.6127 36.7885 46.8499 36.5794C49.0318 34.66 50.7882 32.3765 51.9828 29.8486C53.1324 27.4152 53.7675 24.7443 53.7675 21.9417C53.7675 16.1778 51.0683 10.9583 46.7065 7.18119C42.3441 3.40414 36.3155 1.0671 29.6583 1.0671C23.0004 1.0671 16.9718 3.40414 12.6101 7.18119C8.24764 10.9583 5.54838 16.1778 5.54838 21.9417C5.54838 23.1694 5.66989 24.3688 5.90125 25.5298C6.13916 26.7235 6.49421 27.8813 6.95258 28.9887ZM24.9597 27.4026C26.2628 28.5314 28.0671 29.23 30.0599 29.23C32.0513 29.23 33.8549 28.5308 35.1594 27.4013C36.4639 26.2718 37.2715 24.7102 37.2715 22.9868C37.2715 21.2626 36.4639 19.701 35.1594 18.5716C33.8549 17.4421 32.0513 16.7429 30.0599 16.7429C28.0693 16.7429 26.2657 17.4421 24.9612 18.5716C23.6567 19.701 22.8491 21.2626 22.8491 22.9868C22.8491 24.7121 23.6559 26.2744 24.9597 27.4026Z" fill="white"/>
</svg>
