<svg width="78" height="71" viewBox="0 0 78 71" fill="none" xmlns="http://www.w3.org/2000/svg">
<path d="M73.7293 31.7109C71.7955 31.7109 70.2645 32.8881 69.7004 34.4332H56.1632C56.0826 33.4767 55.9215 32.5938 55.6798 31.7109H65.3492C65.9938 31.7109 66.4773 31.2694 66.4773 30.6808V27.3699C68.25 26.9285 69.4587 25.457 69.4587 23.6912C69.4587 21.5575 67.6054 19.8653 65.2686 19.8653C62.9318 19.8653 61.0785 21.5575 61.0785 23.6912C61.0785 25.457 62.3678 26.8549 64.0599 27.3699V29.6508H55.1963C55.1157 29.6508 55.0351 29.6508 54.9545 29.6508C53.1818 25.6777 49.7975 22.514 45.4463 20.8953C45.4463 20.8218 45.4463 20.8218 45.4463 20.7482V12.5813H47.9442C48.4277 14.2 50.0393 15.3036 51.9731 15.3036C54.3099 15.3036 56.1632 13.6114 56.1632 11.4777C56.1632 9.34404 54.3099 7.65181 51.9731 7.65181C50.0393 7.65181 48.5083 8.82902 47.9442 10.3741H44.3182C43.6736 10.3741 43.1901 10.8155 43.1901 11.4041V20.1596C42.3843 19.9389 41.4979 19.8653 40.6922 19.7917V7.50466C42.4649 7.06321 43.6736 5.59171 43.6736 3.82591C43.6736 1.69223 41.8202 0 39.4835 0C37.1467 0 35.2934 1.69223 35.2934 3.82591C35.2934 5.59171 36.5826 6.98964 38.2748 7.50466V19.7181C37.2273 19.7181 36.2603 19.8653 35.2934 20.086V11.5513C35.2934 10.9627 34.8099 10.5212 34.1653 10.5212H30.5393C30.0558 8.90259 28.4442 7.79896 26.5103 7.79896C24.1736 7.79896 22.3202 9.49119 22.3202 11.6249C22.3202 13.7585 24.1736 15.4508 26.5103 15.4508C28.4442 15.4508 29.9752 14.2736 30.5393 12.7285H33.0372V20.8953C28.3636 22.4404 24.5764 25.8984 22.8037 30.1658H18.7748V24.2062C18.7748 23.6176 18.2913 23.1762 17.6467 23.1762H14.343C13.8595 21.5575 12.2479 20.4539 10.314 20.4539C7.97727 20.4539 6.12397 22.1461 6.12397 24.2798C6.12397 26.4135 7.97727 28.1057 10.314 28.1057C12.2479 28.1057 13.7789 26.9285 14.343 25.3834H16.438V31.343C16.438 31.9316 16.9215 32.3731 17.5661 32.3731H22.0785C21.9174 33.1088 21.7562 33.9181 21.6756 34.6539H8.21901C7.73554 33.0352 6.12397 31.9316 4.19008 31.9316C1.85331 31.9316 0 33.6238 0 35.7575C0.0805785 37.5233 1.93388 39.2155 4.27066 39.2155C6.20455 39.2155 7.73554 38.0383 8.29959 36.4933H21.7562C21.8368 37.4497 21.9979 38.3326 22.2397 39.2155H12.5702C11.9256 39.2155 11.4421 39.657 11.4421 40.2456V43.6301C9.66942 44.0715 8.46074 45.543 8.46074 47.3088C8.46074 49.4425 10.314 51.1347 12.6508 51.1347C14.9876 51.1347 16.8409 49.4425 16.8409 47.3088C16.8409 45.543 15.5517 44.1451 13.8595 43.6301V41.3492H22.8843H22.9649C24.7376 45.543 28.4442 48.7803 33.1178 50.3254V58.4922H30.6198C30.1364 56.8736 28.5248 55.7699 26.5909 55.7699C24.2541 55.7699 22.4008 57.4622 22.4008 59.5959C22.4008 61.7295 24.2541 63.4218 26.5909 63.4218C28.5248 63.4218 30.0558 62.2446 30.6198 60.6995H34.1653C34.8099 60.6995 35.2934 60.258 35.2934 59.6694V50.914C36.0992 51.0611 36.9855 51.2083 37.7913 51.2083V63.4953C36.0186 63.9368 34.8099 65.4083 34.8099 67.1741C34.8099 69.3078 36.6632 71 39 71C41.3368 71 43.1901 69.3078 43.1901 67.1741C43.1901 65.4083 41.9008 64.0104 40.2087 63.4953V51.2819C41.2562 51.2083 42.2231 51.0611 43.1901 50.8404V59.5959C43.1901 60.1845 43.6736 60.6259 44.3182 60.6259H47.9442C48.4277 62.2446 50.0393 63.3482 51.9731 63.3482C54.3099 63.3482 56.1632 61.656 56.1632 59.5223C56.1632 57.3886 54.3099 55.6964 51.9731 55.6964C50.0393 55.6964 48.5083 56.8736 47.9442 58.4187H45.4463V50.2518C45.4463 50.1782 45.4463 50.1782 45.4463 50.1047C49.8781 48.4124 53.4236 45.1016 55.1157 40.9813H55.1963H59.2252V46.9409C59.2252 47.5295 59.7087 47.971 60.3533 47.971H63.657C64.1405 49.5896 65.7521 50.6933 67.686 50.6933C70.0227 50.6933 71.876 49.001 71.876 46.8674C71.876 44.7337 70.0227 43.0415 67.686 43.0415C65.7521 43.0415 64.2211 44.2187 63.657 45.7637H61.562V39.9513C61.562 39.3627 61.0785 38.9212 60.4339 38.9212H55.8409C56.0021 38.1855 56.1632 37.3762 56.1632 36.6404H69.781C70.2645 38.2591 71.876 39.3627 73.8099 39.3627C76.1467 39.3627 78 37.6705 78 35.5368C78 33.4031 76.0661 31.7109 73.7293 31.7109ZM63.5764 23.6912C63.5764 22.7347 64.3822 21.999 65.4298 21.999C66.4773 21.999 67.2831 22.7347 67.2831 23.6912C67.2831 24.6477 66.4773 25.3834 65.4298 25.3834C64.3822 25.3834 63.5764 24.6477 63.5764 23.6912ZM51.9731 9.85907C53.0207 9.85907 53.8265 10.5948 53.8265 11.5513C53.8265 12.5078 53.0207 13.2435 51.9731 13.2435C50.9256 13.2435 50.1198 12.5078 50.1198 11.5513C50.1198 10.5948 50.9256 9.85907 51.9731 9.85907ZM26.5103 13.1699C25.4628 13.1699 24.657 12.4342 24.657 11.4777C24.657 10.5212 25.4628 9.78549 26.5103 9.78549C27.5579 9.78549 28.3636 10.5212 28.3636 11.4777C28.3636 12.4342 27.5579 13.1699 26.5103 13.1699ZM10.2335 25.7513C9.18595 25.7513 8.38017 25.0155 8.38017 24.0591C8.38017 23.1026 9.18595 22.3668 10.2335 22.3668C11.281 22.3668 12.0868 23.1026 12.0868 24.0591C12.0868 24.942 11.281 25.7513 10.2335 25.7513ZM14.4236 47.3088C14.4236 48.2653 13.6178 49.001 12.5702 49.001C11.5227 49.001 10.7975 48.1917 10.7975 47.3088C10.7975 46.3523 11.6033 45.6166 12.6508 45.6166C13.6983 45.6166 14.4236 46.3523 14.4236 47.3088ZM26.5103 61.2145C25.4628 61.2145 24.657 60.4788 24.657 59.5223C24.657 58.5658 25.4628 57.8301 26.5103 57.8301C27.5579 57.8301 28.3636 58.5658 28.3636 59.5223C28.3636 60.4788 27.5579 61.2145 26.5103 61.2145ZM51.9731 57.8301C53.0207 57.8301 53.8265 58.5658 53.8265 59.5223C53.8265 60.4788 53.0207 61.2145 51.9731 61.2145C50.9256 61.2145 50.1198 60.4788 50.1198 59.5223C50.1198 58.6394 50.9256 57.8301 51.9731 57.8301ZM67.7665 45.2487C68.814 45.2487 69.6198 45.9845 69.6198 46.9409C69.6198 47.8974 68.814 48.6332 67.7665 48.6332C66.719 48.6332 65.9132 47.8974 65.9132 46.9409C65.9132 45.9845 66.719 45.2487 67.7665 45.2487ZM37.6302 3.89948C37.6302 2.94301 38.436 2.20725 39.4835 2.20725C40.531 2.20725 41.3368 2.94301 41.3368 3.89948C41.3368 4.85596 40.531 5.59171 39.4835 5.59171C38.436 5.59171 37.6302 4.78238 37.6302 3.89948ZM4.27066 37.1554C3.22314 37.1554 2.41736 36.4197 2.41736 35.4632C2.41736 34.5067 3.22314 33.771 4.27066 33.771C5.31818 33.771 6.12397 34.5067 6.12397 35.4632C6.12397 36.4197 5.2376 37.1554 4.27066 37.1554ZM40.8533 67.1741C40.8533 68.1306 40.0475 68.8663 39 68.8663C37.9525 68.8663 37.1467 68.1306 37.1467 67.1741C37.1467 66.2176 37.9525 65.4819 39 65.4819C40.0475 65.4819 40.8533 66.2176 40.8533 67.1741ZM38.9194 49.1482C30.7004 49.1482 23.9318 43.0415 23.9318 35.4632C23.9318 27.885 30.6198 21.7782 38.9194 21.7782C47.1384 21.7782 53.907 27.885 53.907 35.4632C53.907 43.0415 47.1384 49.1482 38.9194 49.1482ZM73.7293 37.229C72.6818 37.229 71.876 36.4933 71.876 35.5368C71.876 34.5803 72.6818 33.8446 73.7293 33.8446C74.7769 33.8446 75.5826 34.5803 75.5826 35.5368C75.5826 36.4933 74.7769 37.229 73.7293 37.229Z" fill="white"/>
<path d="M45.433 34.8472C46.0928 34.1597 46.4227 33.2431 46.4227 32.0972C46.4227 29.2708 44.0309 27.7431 41.7216 27.7431H40.8144V25.0694C40.8144 24.4583 40.3196 24 39.6598 24C39 24 38.5052 24.4583 38.5052 25.0694V27.7431H32.1546C31.4948 27.7431 31 28.2014 31 28.8125C31 29.4236 31.4948 29.8819 32.1546 29.8819H33.8041V40.1944H32.1546C31.4948 40.1944 31 40.6528 31 41.2639C31 41.875 31.4948 42.3333 32.1546 42.3333H38.5052V44.9306C38.5052 45.5417 39 46 39.6598 46C40.3196 46 40.8144 45.5417 40.8144 44.9306V42.3333H42.134C44.4433 42.3333 47 40.8056 47 37.9792C47 36.6042 46.4227 35.5347 45.433 34.8472ZM41.7216 29.8819C42.8763 29.8819 44.0309 30.5694 44.0309 32.0208C44.0309 33.1667 43.6186 33.9306 41.7216 33.9306H39.7423C39.3299 33.9306 38.3402 33.9306 37.3505 33.9306C36.9381 33.9306 36.4433 33.9306 36.1134 33.9306V29.8819H41.7216ZM42.134 40.2708H36.0309V36.2222C36.4433 36.2222 37.0206 36.2222 37.5155 36.2222C38.5052 36.2222 39.5773 36.2222 39.9897 36.2222H42.0515C44.3608 36.2222 44.5258 37.1389 44.5258 38.1319C44.6082 39.5833 43.3711 40.2708 42.134 40.2708Z" fill="white"/>
</svg>
