<svg width="68" height="57" viewBox="0 0 68 57" fill="none" xmlns="http://www.w3.org/2000/svg">
<path d="M48.5501 35.1168C48.5813 35.1169 48.6046 35.1171 48.6355 35.1141C48.7946 35.1047 52.5652 34.9248 55.457 39.0427C55.5393 39.162 55.6453 39.2642 55.7687 39.3435C55.8922 39.4228 56.0308 39.4776 56.1764 39.5047C56.322 39.5318 56.4719 39.5308 56.6172 39.5015C56.7626 39.4723 56.9007 39.4155 57.0235 39.3344C57.1463 39.2533 57.2514 39.1496 57.3327 39.0291C57.414 38.9086 57.4699 38.7738 57.4973 38.6325C57.5246 38.4912 57.5228 38.3461 57.4919 38.2057C57.461 38.0652 57.4017 37.9322 57.3174 37.8142C53.8319 32.8506 49.1328 32.9101 48.5345 32.9394C46.535 32.9347 44.5769 33.5039 42.9074 34.575C41.238 35.6461 39.932 37.1712 39.1545 38.9575C38.3769 40.7439 38.1626 42.7115 38.5386 44.6119C38.9146 46.5123 39.8641 48.2603 41.2672 49.6352C42.6702 51.0101 44.4639 51.9502 46.4218 52.3368C48.3797 52.7234 50.414 52.5392 52.2677 51.8074C54.1215 51.0756 55.7117 49.8291 56.8375 48.2252C57.9632 46.6214 58.5741 44.7321 58.593 42.7959C58.5958 42.5072 58.4801 42.2296 58.2713 42.0242C58.0625 41.8188 57.7776 41.7025 57.4795 41.7007L49.6105 41.6548C49.3124 41.653 49.0254 41.766 48.8125 41.969C48.5997 42.1719 48.4786 42.4481 48.4758 42.7368C48.473 43.0255 48.5887 43.3031 48.7975 43.5084C49.0064 43.7138 49.2912 43.8302 49.5893 43.8319L56.2542 43.8709C56.0246 45.3152 55.3715 46.6667 54.3724 47.7643C53.3734 48.8619 52.0707 49.6594 50.6193 50.0619C49.1679 50.4644 47.6291 50.4549 46.186 50.0345C44.743 49.6142 43.4565 48.8006 42.4798 47.6908C41.5031 46.581 40.8773 45.2216 40.6769 43.7746C40.4766 42.3276 40.7101 40.8539 41.3498 39.529C41.9894 38.2041 43.0081 37.0839 44.2846 36.3016C45.5612 35.5194 47.0418 35.1081 48.5501 35.1168Z" fill="white"/>
<path d="M67.7985 21.077C67.7994 20.9785 67.7865 20.8805 67.7603 20.7854L62.3306 1.15823C62.2671 0.928602 62.1275 0.725701 61.9333 0.580578C61.7391 0.435455 61.5009 0.356102 61.2552 0.354661L7.29659 0.0394067C7.05089 0.0379767 6.8112 0.114538 6.61419 0.257375C6.41718 0.400213 6.2737 0.60146 6.20571 0.830324L0.394015 20.3918C0.36591 20.4866 0.351152 20.5845 0.350144 20.6829C0.314742 24.3147 1.87709 26.9393 4.77246 28.3254L4.54958 51.1893C4.53719 52.6324 5.11642 54.0193 6.1602 55.0459C7.20397 56.0724 8.62705 56.6547 10.1172 56.665L57.331 56.9409C58.8212 56.948 60.2555 56.3824 61.3192 55.3681C62.3829 54.3539 62.9891 52.9739 63.0048 51.5309L63.2278 28.655C64.0105 28.2921 64.7277 27.8087 65.3512 27.2237C66.9275 25.7316 67.7738 23.606 67.7985 21.077ZM65.206 19.9732L50.8863 19.8896L50.0567 2.46651L60.3795 2.52682L65.206 19.9732ZM33.1306 2.36762L32.9608 19.7848L19.5352 19.7064L20.7043 2.29502L33.1306 2.36762ZM47.8051 2.45335L48.6346 19.8764L35.2091 19.798L35.3788 2.38075L47.8051 2.45335ZM32.8441 21.9614C32.5639 23.4817 31.737 24.8586 30.5101 25.8478C29.2831 26.8371 27.7355 27.3747 26.1417 27.3654C24.5478 27.3561 23.0109 26.8004 21.8034 25.797C20.5958 24.7935 19.7959 23.4071 19.5453 21.8837L32.8441 21.9614ZM48.5821 22.0534C48.3019 23.5737 47.4749 24.9506 46.248 25.9398C45.0211 26.929 43.4734 27.4667 41.8796 27.4574C40.2858 27.4481 38.7488 26.8924 37.5413 25.8889C36.3338 24.8855 35.5338 23.4991 35.2832 21.9757L48.5821 22.0534ZM8.12985 2.22155L18.4527 2.28186L17.2835 19.6932L2.96384 19.6096L8.12985 2.22155ZM2.65062 21.785L17.1062 21.8695C16.8239 23.3888 15.9964 24.7645 14.7699 25.7534C13.5435 26.7422 11.997 27.2807 10.4037 27.2735C5.64019 27.2457 3.03851 25.3994 2.65062 21.785ZM60.7565 51.5177C60.7471 52.3835 60.3834 53.2115 59.7451 53.8201C59.1069 54.4286 58.2464 54.768 57.3523 54.7637L10.1384 54.4879C9.24434 54.4817 8.39049 54.1323 7.76423 53.5164C7.13796 52.9005 6.79043 52.0683 6.79786 51.2025L7.01342 29.0894C8.11856 29.3313 9.24864 29.4525 10.3825 29.4507C11.9891 29.459 13.5702 29.0507 14.9616 28.2683C16.353 27.4858 17.5041 26.3577 18.2953 25.0011C19.0591 26.3675 20.1879 27.5095 21.5641 28.3082C22.9403 29.1069 24.5136 29.5331 26.1204 29.5425C27.7272 29.5519 29.3087 29.1441 30.7004 28.3616C32.092 27.5791 33.2429 26.4504 34.0332 25.093C34.7971 26.4595 35.9258 27.6015 37.302 28.4002C38.6782 29.1989 40.2516 29.6251 41.8584 29.6345C43.4652 29.6439 45.0467 29.2361 46.4383 28.4535C47.8299 27.671 48.9808 26.5423 49.7712 25.185C50.5359 26.5507 51.6648 27.6921 53.0408 28.4907C54.4168 29.2894 55.9898 29.716 57.5963 29.7265C58.7301 29.7422 59.8624 29.6343 60.9721 29.4047L60.7565 51.5177ZM57.6176 27.5493C56.0243 27.5379 54.4885 26.9815 53.2814 25.9784C52.0744 24.9753 51.2738 23.5901 51.0212 22.0676L65.4731 22.1521C65.1113 24.8413 63.3422 27.5828 57.6176 27.5493Z" fill="white"/>
</svg>
